<svg id="Layer_1" data-name="Layer 1" xmlns="http://www.w3.org/2000/svg" viewBox="0 0 347 776.57617"><defs><style>.cls-1{fill:#fda595;}.cls-2,.cls-3{fill:#fff;}.cls-3{font-size:676.39136px;font-family:EdwardianScriptITC, Edwardian Script ITC;}</style></defs><title>Logo</title><circle class="cls-1" cx="173.5" cy="474.07617" r="167.5"/><path class="cls-2" d="M499.5,339a161.49988,161.49988,0,1,1-114.19778,47.30222A160.443,160.443,0,0,1,499.5,339m0-12A173.5,173.5,0,1,0,673,500.5,173.5,173.5,0,0,0,499.5,327Z" transform="translate(-326 -26.42383)"/><path class="cls-1" d="M499.5,327l-.07458,0h-.0246l-.04962,0-.03113,0-.04334,0-.0321,0-.04242.00006-.03381.00006-.04139.00009-.03228.00007-.044.0001-.03113.00009-.04553.00013-.02875.00008-.047.00015-.02906.0001-.07183.00028-.02808.00011-.04614.00019-.03162.00015-.04394.0002-.03211.00016-.04126.00021-.03516.00019-.03955.00021-.03515.00021-.03937.00024-.03491.00021-.03876.00024-.03754.00025-.03137.00022-.04321.0003-.02228.00016-.09888.00074-.02172.00017-.04639.00038-.02661.00022-.04657.00039-.02661.00023-.047.00041-.02649.00025-.04547.00042-.02808.00027-.04742.00046-.02246.00022-.05127.00052-.01746.00018c-.11084.00115-.22131.00239-.33209.00375l-.00629.00008-.05883.00073-.01508.00019-.05792.00075-.012.00016-.06146.00081-.00745.0001c-.88031.01185-1.748.03-2.62512.05492a2.31264,2.31264,0,0,1-1.88855.06567c-.03106,0-.06244.00058-.09375.00173-1.67395.06644-3.34717.15674-5.00854.27028a2.09744,2.09744,0,0,1-1.78339.13894q-.10006,0-.2016.008-.27035.02157-.54034.04395l-.02728.00227-.04285.00356-.03974.00332-.03088.00258-.044.00368-.02575.00217-.05.00422-.01569.00132-.05725.00485-.00262.00022c-.48072.04078-.95624.08311-1.43585.1278l-.00348.00033-.06031.00563-.01257.00117-.05743.00539-.01288.00121-.05664.00534-.01642.00154-.05365.00509-.02094.002-.04956.00471-.03509.00335-.06519.00622-.042.004-.03168.003-.04352.00419-.027.00261-.04914.00475-.02466.00239-.05175.005-.02118.00206-.0589.00574-.01428.0014q-.93036.09106-1.85773.1919a1.91679,1.91679,0,0,1-1.68378.20928,2.52695,2.52695,0,0,0-.30188.01817q-1.47738.17783-2.947.38031l-.00018,0-.0752.01038-.003.00042-.06976.00966-.0083.00115-.14612.02032-.03589.005-.03449.00483-.04589.00643-.02179.003-.05359.00753-.01306.00184c-.50666.07131-1.00721.144-1.51245.21974a1.713,1.713,0,0,1-1.56385.27359,2.51732,2.51732,0,0,0-.39746.03168l-.02032.00328-.0055.0009c-1.141.18444-2.27295.37915-3.40643.58574l-.00183.00034-.06445.01175-.00379.0007q-.1583.02892-.3164.05811l-.01954.00361-.04357.00806-.031.00573-.03864.00716-.03363.00624-.0368.00683-.03882.00723-.03223.006-.056.01045-.014.0026-.07386.01381-.00939.00176-.06391.012-.01684.00316-.05848.011-.01409.00265-.06324.0119-.01.00189-.06939.0131-.00385.00074q-.191.03609-.38165.07259a1.56573,1.56573,0,0,1-1.46088.33657,2.50958,2.50958,0,0,0-.49591.04965q-1.291.26259-2.574.544l-.00733.0016-.05731.01259-.01257.00277-.05262.01156-.02.00441-.04962.01094-.01806.004-.05042.01113-.002.00042-.0987.02185-.03686.00818-.033.00732-.03864.00858-.03149.007-.0434.00967-.027.006-.04731.01054-.024.00537-.05866.01311-.01214.00272-.14765.0331-.01123.00254-.06091.0137-.01856.00419-.0542.0122-.01995.00451-.05243.01185-.02228.005-.05451.01233-.01672.00379-.14722.03344-.00805.00184-.0614.014-.0257.00585-.04547.01039-.029.00661-.04126.00945-.032.00732-.03656.00839-.03766.00864-.02161.005c-.21869.05024-.44061.10169-.659.15275a1.39851,1.39851,0,0,1-1.3363.39144,2.50731,2.50731,0,0,0-.58814.07026q-1.24749.30688-2.48583.63119l-.00226.00059-.05652.0148-.01471.00386-.052.01365-.01642.00432-.05048.01328-.01867.0049-.14667.03868-.03729.00985-.03376.00894-.03827.01013-.03149.00833-.03937.01044-.03125.0083-.044.01169-.025.00666-.0578.01539-.01178.00312-.14758.03939-.00513.00137-.06891.01843-.00683.00184-.0672.018-.00769.00206q-.67667.18162-1.3512.36851a1.271,1.271,0,0,1-1.22858.4462,2.50224,2.50224,0,0,0-.69653.0993l-.00256.00074q-1.7645.51111-3.51337,1.05842l-.00287.0009-.069.02161-.00635.002q-.14647.04591-.2929.0921l-.00733.0023-.06451.02036-.0102.00322-.0617.0195-.01227.00389-.06848.02168-.00147.00048-.14788.04693-.00263.00084-.0661.021-.0166.00528-.0553.01764-.01727.00549-.05323.017-.01886.006-.05853.01872-.01172.00374-.14166.04538-.01825.00586-.05176.01665-.01025.00329a2.49252,2.49252,0,0,0-.88593.50269q-.1093-.00974-.22009-.00978a2.4986,2.4986,0,0,0-.793.12964q-1.66744.55739-3.31988,1.14753l-.01251.00449-.05524.01974-.02069.00739-.04694.01682-.02466.00883-.04174.01495-.029.01039-.04687.01682-.06458.02321-.0169.00609-.05188.01866-.01252.00452-.05627.02026-.00464.00168c-.30694.11064-.618.22381-.92419.33613a2.49134,2.49134,0,0,0-.856.53488q-.05933-.00283-.11908-.00285a2.49446,2.49446,0,0,0-.88422.16246l-.19012.07239-.01148.00438-.0495.0189-.01733.00661-.048.01837-.017.00649-.04828.01846-.01221.00469-.15979.06124-.01928.00742-.04316.0166-.02539.00977-.039.015-.0296.01141-.03656.01407-.033.01272-.03442.01329-.03211.01238-.06586.02545-.03192.01235-.03406.01318-.03338.01292-.0362.014-.03009.01166-.03747.01453-.028.01086-.04016.01558-.025.00972-.14374.05594-.02508.00978-.04053.01581-.02557.01-.0401.01565-.02778.01087-.03949.01542-.0241.00945-.043.01686-.00983.00383-.10046.03938-.01514.006-.04382.01719-.02338.00919-.04071.016-.02582.01015-.04132.01626-.024.00948-.04211.0166-.01874.00739-.16406.06479-.00659.00262-.05115.02023-.01489.00591-.05.01985-.0127.005-.05279.02095-.00678.0027c-.082.03255-.15808.06282-.24.09548l-.00116.00045-.05859.0234-.00482.0019-.05683.02271-.00641.00256c-.10235.04091-.19818.0793-.30041.12041l-.00379.00151-.05719.023-.00634.00257c-.12274.04938-.24164.09736-.3642.147l-.00031.00014c-.12255.04964-.24249.09837-.36492.14828l-.00391.00159-.05634.023-.00738.003-.05567.02273-.00555.00227-.234.0958-.00915.00375-.05194.02134-.01239.00509-.04969.0204-.01568.00647-.04932.02028-.01153.00478-.15656.06454-.02106.00868-.03949.01635-.02728.01127-.02.00826a2.49048,2.49048,0,0,0-.84112.57264l-.01892-.00007a2.493,2.493,0,0,0-.98127.20178q-1.6875.72111-3.35644,1.47678l-.01251.00567-.05256.02382-.02.00907-.04737.02146-.0202.00918-.04981.02262-.03692.01677-.04248.01934-.04267.01941-.0194.00883-.04773.02173-.01386.00632-.05279.02409-.0033.0015c-.2547.11622-.50543.23135-.75952.34878a2.53088,2.53088,0,0,1-1.79334.84131c-.29705.14143-.59546.28458-.89154.42764l-.014.00676-.043.02083-.0238.0115-.03863.01871-.02832.01369-.03461.01678-.03967.01921-.02991.01452-.05933.0288-.01465.00713-.05243.02547-.01684.00821-.05237.02546-.01428.007-.057.02778-.00934.00455q-.13888.06768-.27758.1356l-.0011.00054q-.52533.25719-1.04871.51784l-.00488.00244-.05988.02983-.01367.0068-.05383.02686-.01428.00713-.05665.02832-.00994.005-.06672.03336-.01116.00558-.0517.02587-.03107.01559-.03125.01564-.03656.01834-.02441.01226-.04212.02113-.01458.00732q-.61653.30966-1.2306.62423a2.5395,2.5395,0,0,1-1.76013.91447q-.13055.06882-.261.13782l-.00733.00387-.03876.02053-.0296.01567-.02929.01552-.03895.02064-.02252.012-.05853.031-.00323.00171q-1.96774,1.04479-3.90513,2.13826a2.5612,2.5612,0,0,1-1.72964.9893c-1.44437.83725-2.88593,1.701-4.30353,2.57836a2.55462,2.55462,0,0,1-1.68655,1.05734q-.65837.418-1.31272.84175l-.01171.00758-.049.03174-.01815.01178-.04279.02776-.02115.01372-.04193.02722-.0195.01266-.04449.02892-.04261.02771-.03109.02022-.03391.02207-.02435.01586-.03607.0235-.02326.01515-.03769.02458-.01639.01068-.20489.13388-.00357.00235-.05142.03366-.00422.00277c-.10925.07156-.2156.1414-.3247.21321l-.00153.001c-.32727.21541-.65143.43036-.97714.64792l-.00278.00185-.05261.03515-.0014.00095c-.08594.05744-.17591.11772-.26175.17531l-.015.01-.04144.02785-.01633.01095-.04055.02727-.01758.01183-.126.08482-.02847.01918-.02777.01874-.03373.02273-.026.01752-.03689.02492-.02176.01468-.04511.0305-.01309.00883a2.57695,2.57695,0,0,1-1.64975,1.12923q-2.0559,1.42467-4.06833,2.90662a2.57864,2.57864,0,0,1-1.60327,1.19481l-.00073.00056-.12158.09178-.008.00606-.052.03932-.0101.00763-.0521.03943-.00762.00577-.18232.1382-.00613.00467-.05222.03967-.01229.00932-.05039.03832-.00809.00615-.18148.13824-.00708.00539-.05335.04069-.00839.00643-.05341.04078-.0065.005-.18344.14036-.00159.00122-.058.0445-.00629.0048-.05435.04172-.00665.00511-.18149.13951-.00632.00486-.05346.04118-.00852.00656-.05319.041-.00656.00506-.18115.13991-.00669.00516-.05154.03988-.01227.00951-.04721.03656-.01233.00954-.05463.04236c-.0043.00332.00092-.00072-.00335.00261l-.11865.09208-.01362.01058-.04434.03448-.017.0132-.04226.03288-.01587.01235-.04749.037-.01086.00846-.05832.04547-.007.00546-.05093.03975-.01508.01178-.04239.03308-.01953.01529-.037.02889-.022.01718-.03537.02769-.02283.01784-.05377.04213-.024.0188-.03153.02472-.02914.02284-.02744.02153-.0303.02379-.024.01886-.03311.026-.01987.01561-.18716.14734-.00415.00327q-.50509.39815-1.00785.80052a2.54009,2.54009,0,0,1-1.54235,1.24887q-.11331.09283-.2266.186l-.01248.01025-.02728.02243-.0322.02649-.02038.01677-.03891.03206-.01532.01261q-1.74591,1.43835-3.45346,2.92106a2.579,2.579,0,0,1-1.50272,1.32q-1.19687,1.06356-2.374,2.14883l-.00418.00385-.04822.04448-.01657.0153-.035.03226-.02178.02013-.02933.0271-.02588.02391-.02414.02233-.11636.10772-.008.00738-.0437.04051-.00351.00327c-.318.29491-.63019.58662-.946.88386a2.55464,2.55464,0,0,1-1.44144,1.37252q-.5343.51453-1.06421,1.03364l-.00171.00168-.05075.04975-.00708.00694-.05136.05038-.0018.00176-.16458.16173-.0054.00531-.05024.04946-.00366.00362q-1.08467,1.06828-2.15051,2.15534a2.57863,2.57863,0,0,1-1.39206,1.43605q-1.72967,1.8049-3.40732,3.65911a2.55558,2.55558,0,0,1-1.32721,1.48377c-.1329.15028-.2579.29214-.39029.44289l-.01919.02183-.02268.02586-.03091.03522-.01251.01427-.04514.05148-.002.00234q-1.38969,1.586-2.74124,3.2059a2.54953,2.54953,0,0,1-1.265,1.53378c-.33935.41634-.67847.83618-1.014,1.25571l-.00555.00694-.03485.04358-.00882.01105-.03467.04338-.00369.00464-.10941.13713-.01211.0152-.028.03514-.01681.02113-.02555.03206-.02056.02585-.02427.03051-.01852.02333-.06033.076-.00592.00746-.02372.02988-.0209.02635-.02432.03066-.02024.02554-.02383.03009-.02036.0257-.02465.03113-.02161.02732-.0217.02742-.03659.04631-.0285.03608-.02091.02649-.02371.03006-.02.02529-.02447.03106-.02063.02618-.02372.03009-.0195.02477-.08993.11428-.01914.02437-.02624.03342-.01688.02148-.02691.03427-.01651.02105-.02784.03549-.01269.01619-.1015.12964-.01114.01419-.02969.038-.01334.01706-.02921.0374-.01385.01772-.03055.03913-.006.00769-.11176.14339-.0047.006-.03347.043-.00931.01195-.03186.041-.01056.01356-.03281.04222-.00537.00691-.11011.1419-.00665.00857-.03262.04212-.00955.01236-.03156.04075-.01218.01573-.03018.039-.01031.01333-.09616.12451-.01911.02475-.02334.03026-.02076.02693-.02273.02951-.0217.02814-.02185.02838-.02707.03519-.01562.02031-.04361.05675-.00208.0027a2.54484,2.54484,0,0,1-1.20135,1.582c-.577.76877-1.14057,1.53282-1.705,2.31142l-.0145.02-.01742.02405-.026.03589-.01544.02135-.03052.04216-.01084.015-.03714.05137-.00512.0071q-.5484.75894-1.08881,1.524a2.57891,2.57891,0,0,1-1.14456,1.64033q-1.41806,2.05734-2.77805,4.15717A2.55066,2.55066,0,0,1,352.696,407.987c-.57571.91173-1.14935,1.83919-1.70846,2.76229l-.00925.01527-.0253.04178-.01278.02116-.02243.0371-.017.02813-.01984.0328-.036.05954-.0083.01376-.02981.04944-.01081.01793-.02868.04762-.009.015-.03161.05254-.00629.01044q-.32125.53407-.63882,1.07066a2.57242,2.57242,0,0,1-1.00727,1.72455l-.01739.03018-.00952.01653-.02436.04232-.01111.01929-.02307.04012-.0141.0245-.041.07146-.01282.02231-.019.03306-.01721.03-.01706.02978-.01959.03415-.017.02977-.01871.03268-.01694.02956-.021.03671-.01487.026-.03454.06049-.0119.02087-.02335.04088-.01541.027-.02133.03742-.01493.02623-.02136.03747-.01443.02536-.02433.04276-.01168.02057-.03522.062-.00763.01341-.02817.04962-.01263.02226-.02323.041-.01474.026-.02084.03679-.01532.02707-.02081.03673-.01526.027-.02817.04984-.01685.02981-.02355.04172-.018.03188-.01764.03126-.01794.03182-.01746.031-.01776.03151-.01718.03053-.01932.03435-.01016.01806-.07877.1402-.012.02133-.02243.04-.0116.02069-.02282.04074-.01111.01987-.0239.04266-.007.0126-.087.15569-.00363.00651-.02894.05187-.00372.00668-.02893.05187-.00375.00676c-.06378.11448-.1247.22416-.18824.33882l-.00106.00193c-.19059.344-.37854.686-.56687,1.03135l-.00168.00309-.03.05512-.00158.0029-.12082.2222-.00443.00818-.02429.04476-.01022.01883-.0228.04207-.01126.0208-.02133.03937-.01325.02447-.03534.06534-.01708.03166-.01331.02465-.02149.03976-.01266.02347-.02414.04478-.0101.01873-.02612.04849-.00614.01138a2.57672,2.57672,0,0,1-.93786,1.766q-.43448.82965-.86017,1.66443l-.00012.00018-.10437.205-.00754.01484-.02338.046-.01486.02922-.01633.0322-.01773.035-.01208.02385-.02109.04162-.00046.00086c-.40066.79114-.79266,1.58006-1.18152,2.3781a2.54247,2.54247,0,0,1-.85937,1.78959c-.29557.62462-.58423,1.24433-.87253,1.873l-.00153.0033-.10427.22785-.00541.0118-.01867.04091-.012.0264-.01605.03514-.01492.03279-.01447.03172-.01843.04051-.01059.02327-.06219.13684-.0004.0009-.03073.06772-.00305.00679-.03019.06661-.00045.001q-.435.96081-.85874,1.92791a2.57909,2.57909,0,0,1-.79156,1.83548c-.00217.00506.00137-.00322-.0008.00184l-.02948.06954-.00488.01153-.02179.05139-.01669.03943-.01041.02466-.02017.04772-.00461.01092c-.50543,1.1962-.99441,2.391-1.47357,3.60072l-.00351.00887-.02152.05432-.00381.00966-.02118.05353-.0021.00532-.03119.079-.0192.04863-.00534.01355-.02286.058-.00448.01138-.0257.0654-.00076.0019q-.07137.18154-.1424.36338a2.57938,2.57938,0,0,1-.71689,1.86751q-.30267.80228-.59759,1.60837l-.00073.002-.02549.06969-.00143.00387-.05246.14383-.00384.01053-.02054.05643-.00919.02526-.01535.04215-.01083.02989-.01331.03664-.01224.03367-.0112.03093-.01416.039-.00317.00877-.06265.17327-.0029.008-.0206.05711-.00208.0058-.02142.0594-.0004.00116c-.27163.75444-.53662,1.50676-.798,2.266a2.55579,2.55579,0,0,1-.63733,1.88618q-.51475,1.5529-1.00095,3.11873l-.00335.01084-.01828.05887-.00544.01751-.01657.05355-.00567.01837-.01865.06027-.00326.0106-.02179.07055-.00635.02063-.01471.04763-.01022.03324-.01066.03465-.0122.03969-.00815.0265-.01321.043-.00693.02256-.01468.04787-.00256.00839c-.03257.10631-.06263.20479-.095.31118l-.00054.00183c-.07282.23936-.14554.48027-.21735.72008a2.559,2.559,0,0,1-.56,1.9102q-.21461.74789-.42267,1.49859l-.00232.00847-.01788.06455-.00278.01-.01831.06626-.00183.00669-.041.14859,0,.00009-.01972.0717-.00339.0123-.01623.05922-.00461.01677-.0155.05655-.00455.01663-.016.05833-.00366.01345-.05982.21949-.00268.00986-.017.06278-.00348.01283-.0174.06415-.00186.00685q-.31613,1.16769-.61639,2.34169a2.5731,2.5731,0,0,1-.48367,1.938l-.00406.01666-.01007.0415-.00733.03012-.01071.0441-.00644.02658-.015.06215-.00684.02826-.01187.0491-.00736.03045-.0101.04183-.00689.02863-.01047.04349-.007.0291-.01019.04245-.007.02934-.01023.04263-.007.02919-.01539.06436-.00125.00518-.017.071-.005.02113-.01245.05228-.00507.0213-.012.0506-.00537.02266-.01258.05287-.00445.01885-.014.05925-.00287.01213-.05252.22247-.00177.00763-.01581.06725-.00183.00781-.01657.07057-.00043.00188q-.40048,1.70942-.76724,3.43182a2.57449,2.57449,0,0,1-.40494,1.95776l-.00341.01706-.009.04471-.006.03006-.00809.04038-.00653.03268-.00732.03665-.00729.03662-.00229.01154-.02365.1188-.00068.00339-.01046.05283-.00354.01782-.0105.053-.00284.01446-.01108.056-.00195.01c-.12653.64133-.24811,1.27655-.36755,1.92038l-.00058.00321-.01136.06121-.00174.00934-.01114.06037-.00067.00354c-.01947.10547-.03964.21536-.059.32092l-.00268.01468-.00958.05264-.00321.01764-.00928.05087-.00369.02036-.00912.05017-.0029.0159-.0322.17816-.00189.0105-.00849.04712-.00454.02518-.00775.04318-.005.02807-.00778.04346-.00494.0275-.00773.04327-.00473.02643-.00833.04672-.00247.01389-.03067.1726-.0033.01871-.00881.0499-.00351.0198-.00879.0499-.00373.02115-.00857.04864-.00369.021-.00879.05-.00275.01565c-.01462.08353-.02948.16852-.044.25208l-.00076.00427-.01059.061-.00137.008-.01056.06092-.001.00595c-.02023.117-.04068.236-.06067.35308a2.56514,2.56514,0,0,1-.32422,1.96637q-.39156,2.46328-.71371,4.94913a2.57929,2.57929,0,0,1-.24551,1.985l-.009.07663c-.00067.00567.0004-.00351-.00024.00213l-.00836.07126-.00113.00968-.00772.06613-.00125.01071-.00754.06491-.00128.01111-.00843.07269-.00024.00208-.01727.14993-.00242.02124-.00589.05136-.00341.02988-.00473.04171-.00382.03336-.00436.03854-.00424.03751-.0037.03247-.00454.04038-.00327.02883-.00513.04563-.00015.00155-.02164.19361-.00134.012-.00653.05893-.00107.00974-.00671.0607-.00095.00842-.007.064,0,.00043c-.07745.70459-.15027,1.406-.21927,2.1131l-.00061.0065-.00579.05939-.00126.01287-.00534.05506-.00186.01929-.005.05166-.00189.01959-.00492.05106-.0029.0303-.00384.04023-.007.07284-.00125.01331-.00592.06234-.00147.0152-.0058.0615-.00128.01364-.00628.067-.00049.005q-.04.42728-.07807.85534a2.57837,2.57837,0,0,1-.16561,1.99433l-.01181.15375-.00037.00509-.0054.07083-.00061.00818-.005.06574-.001.01349-.00473.06286-.001.01325-.00489.0654-.00073.01-.01135.15283-.00024.00348-.00516.07025-.00138.01861-.004.05551-.0018.02442-.00354.04886-.002.02789-.0032.04462-.00229.03183-.00308.04275-.00217.0304-.00314.04428-.0022.03088-.00311.0441-.00632.08957-.00061.00867-.00305.04373-.00214.03039-.003.04239-.002.02942-.00312.04526-.00183.02631-.00332.0487-.00141.02048-.0036.05252-.00116.01727-.00381.05594-.00043.00644c-.07556,1.11545-.14005,2.22421-.19443,3.34534a2.52591,2.52591,0,0,1-.08472,1.97473q-.07653,2.05165-.10522,4.1141l-.00021.01456-.00067.04974-.00037.02717-.00055.04217-.00049.03592-.00043.03439-.00058.045-.00033.02841-.00073.05914-.00016.0123q-.00324.27291-.00564.54608a2.57785,2.57785,0,0,1-.00641,2.00394q.00576,2.35006.07358,4.68521l.00036.01248.0018.06162.00058.01931.00156.05292.00079.026.00144.04752.00088.02929.00125.04059.00083.02741a2.55776,2.55776,0,0,1,.07257,1.99075c.05127,1.21558.11514,2.432.19128,3.641l.00034.00543.00372.05869.0011.01739.0033.05185.00161.02527.00275.04294.00281.04391.00174.02674q.035.54231.07333,1.08377a2.5788,2.5788,0,0,1,.15265,1.99536q.01607.195.03256.39l0,.00071.00635.07473.00058.00687.00592.06934.00073.0086.00577.06726.00089.01053.00631.07331.00013.00119.02008.23086.00094.01065.00568.06467.00128.01468.00531.06.00153.01734.00534.0599.00137.0156.00534.05978.00147.01648.00628.06977c.00049.0057-.00015-.00144.00037.0043l.01388.15332.00077.0086.00592.06507.00168.01822.00524.05746.00162.01749.00546.05948.0015.01608.00574.06219.00116.01255.00656.07049.00039.0044.01447.15457.00015.00143.007.07434.00076.00782.00638.06735.00107.01147.00635.06662.00085.00879.00659.069.00068.00711q.01854.1931.03744.38608l.00006.0007.00739.07483.00049.00513.00729.07394c.00058.00571-.00037-.0039.00018.0018q.02683.27078.05448.54126l.0003.00321q.01972.19317.03992.38638l.00012.0011.0076.07266.00113.01053.0068.06482.00126.012.00674.06391.00134.01254.00748.07049.00033.00336.02427.22672.00213.01986.00586.05442.00263.02414.00509.04712.00327.03012.00461.04232.00366.03363.00384.03525.00428.03919.00314.02862.027.24484.00064.0058.00265.024a2.54213,2.54213,0,0,1,.23056,1.96954c.08551.69623.17423,1.38407.268,2.07773l.00052.004.00827.061.00131.00974.00781.05768.002.01471.00735.05407.00247.01813.00714.05234.00217.01566.02219.16171.00467.03387.00457.03317.00574.04142.00424.03064.00629.04532.00351.02523.00739.053.00274.01981.00971.06946.00021.00152q.14607,1.04421.3045,2.08441a2.56315,2.56315,0,0,1,.31156,1.96979c.03668.22354.07236.43827.10989.66156l.00171.01026.0094.05575.00278.01651.00882.05225.00314.01867.00885.05234.00107.00626.02985.17572.00418.0245.00747.04386.00476.02777.00724.0423.00509.02966.00724.0423.00491.02853.00735.04273.00467.02713.0293.16955.00183.0105.0087.0502.00363.02094.00867.04977.00345.01978.00863.04959.00369.02111.00885.0506.00257.01465c.01852.10584.03747.21356.05621.31934l.00113.00638.01105.06234.00082.0047.01138.064.00025.0014c.13357.75116.273,1.50607.41623,2.25388l.00213.01126.00715.03714.00683.03567.006.03128.00861.0448.00458.02372.01065.05526.00265.01377.02857.14758a2.55742,2.55742,0,0,1,.39056,1.953c.26682,1.29541.5462,2.57691.84168,3.86161l.00149.0064.01337.05811.00311.01352.01221.053.00494.02139.01892.08182.00727.03131.00711.03076.00958.04126.00653.02811.01065.04583.00571.02454.01187.051.00445.01908.01422.06091.00223.00961q.05292.22636.10639.45258a2.57986,2.57986,0,0,1,.47116,1.94211q.1695.68151.34436,1.36078l.00317.01236.01486.05755.00513.02.01254.04852.0069.02671.01144.04428.00705.02725.01062.04092.01954.07535.00479.01837.01318.05072.00433.01667.01337.05136.0043.01651.014.05346.00262.01008c.15806.60549.31754,1.203.48194,1.80587l.00046.00159c.02786.10229.0574.21014.08548.31235l.00363.01324.01355.04926.00589.02136.01233.04477.00689.02505.01215.044.00732.02658.01136.041.01123.04058.01327.048.01355.04889.007.02508.01254.0452.00769.02768.01267.0455.00665.024.01428.05118.00516.01858.01813.06494.00146.00519.02069.0741a2.55772,2.55772,0,0,1,.54782,1.915c.1.342.20227.68781.3043,1.02894l.00329.011.01532.05121.00528.01764.01419.0473.00653.02179.01389.04627.007.02334.013.04309.00885.02942.02078.069.011.03641.00933.03091.01178.039.00925.03054.01279.04227.00811.02686.01371.04516.00753.02484.01661.05472.00448.01483.04361.14334.00409.01343.01761.05771.00531.01743.01721.05624.00446.01465.01837.06.00366.012q.0446.14547.08936.29077l.003.00967.02054.06666.00134.00433q.35691,1.15594.72943,2.30493a2.5589,2.5589,0,0,1,.62534,1.8916c.06372.18906.12725.3765.19162.56525l.00589.01727.01474.04321.00982.02878.01193.035.01358.0397.00937.02743.01957.05707.00354.01035.02475.07217.00076.00226.02365.06882.00372.01083.02094.06088.00409.01187.02139.06217.00314.00909q.06276.18205.12589.36386l.00128.0037q.06367.18333.12781.3667c.00183.00521-.00144-.00409.00039.00112l.02481.07093.00141.004.02487.071.00052.00143.07724.21973.00122.00345.023.06543.00476.01349.01965.05563.00629.01779.01972.05576.005.01407.02353.06637.00143.00412.02478.06989.00617.0173.01806.0509.00889.025.01574.04425.00968.02713.01422.04.01092.03061.01349.03781.01117.03128.01282.03592.02426.06787.00964.027.01429.03985.00979.02738.01444.04019.00988.02756.0141.0393.00989.02756.01495.04153.00693.01932.05713.15854.00571.01581.01712.04745.00659.01825.017.04712.0072.01984.0166.04587.00739.02035.0166.04587.006.01645.05624.15484.00858.02359.01425.03907.01087.02987.01352.037.01168.03205.01264.0346.01349.0369.01107.03036.05021.13706.005.01367.02127.05792.00476.013.022.05982.00372.01013q.0531.14433.10635.28842a2.57651,2.57651,0,0,1,.70371,1.86969l.00454.01193.01987.05179.00678.01767.02053.0535.00663.01724.02478.06448.00161.00422.02594.06741.00962.025.01657.043.0115.02982.01386.03595.01324.03427.01276.033.01355.03509.0116.03.01471.038.00418.01083.03927.10132.00531.01364.01859.04788.007.01785.01821.04694.00684.01755.01956.05023.00348.00894c.49045,1.25937.99033,2.49951,1.50916,3.74442a2.5596,2.5596,0,0,1,.77688,1.83425q.16887.39245.33969.784l.00617.01419.02276.05216.00892.02041.02124.04856.00827.01892.021.048.00965.022.02752.06286.01593.03629.01169.02664.018.041.011.025.01792.0408.00979.02225.01923.04373.00754.01712.09884.224.0029.00656.02439.05514.00274.00623.02512.0567.00079.0018c.04453.1005.08814.19873.13284.29914l.00071.00161c.38659.86826.78259,1.738,1.183,2.59873a2.51857,2.51857,0,0,1,.84387,1.78714c.22275.46472.45044.93454.67719,1.397l.00067.00134.02563.05231.00586.01193.023.04676.00907.01846.02179.04434.00878.01788.06684.13572.01663.03372.01453.02945.01742.03534.01465.02963.01892.03827.01294.02621.02219.04483.00958.01938.06518.13153.009.01807.02389.04816.00949.0191.0242.04874.00922.01852.026.05225.00653.01312.067.13446.005.0101.02719.05444.00953.01908.02447.049.00858.01715.02563.05121.00769.01538.03086.06161c.00247.00489-.00031-.00064.00213.00425l.03314.0661.00876.01742.02414.0481.01071.0213.02234.04449.012.02372.02078.04132.01248.02478.02154.04281.01139.02256.03232.06408.00619.01233.02551.05054.01471.029.01767.035.01621.03208.01553.03067.01715.0339.016.03162.0167.033.01407.02774.034.06686.01444.02848.01675.033.01581.03109.01813.03565.0137.02691.01883.037.013.02551.02005.03934.00891.01749.07519.14731.009.01761.0209.04089.01163.02277.02.03906.01272.02487.0203.03958.00894.01746.07663.14926.00772.015.02231.04337.01.01941.02136.0415.01117.0217.01422.02762a2.5677,2.5677,0,0,1,.92426,1.76813l.0242.04559.00567.01074.02265.04267.01153.02169.02.03763.01526.02872.01816.03418.01569.02948.01788.03357.0321.06024.0094.01764.0257.04822.01074.02008.02445.0458.01019.01908.02612.04886.00861.01611q.07177.13422.14383.2684l.00155.00287q.572,1.065,1.15836,2.12106l.00513.00931.02954.0531.00946.017.02673.04813.01.018.02832.05087.00757.01355.03387.06086.01761.03155.0166.02973.02112.03784.01261.02255.02215.03967.01114.01993.0253.0452.00113.002q.26394.47173.5314.94278a2.55352,2.55352,0,0,1,.9921,1.72418q1.26018,2.16134,2.58044,4.28275a2.55235,2.55235,0,0,1,1.06085,1.683c.38669.60581.77948,1.21268,1.17347,1.81333l.00744.01132.02915.0444.00955.01456.02688.04092.01444.022.02429.03692.0365.05548.01456.02213.02505.038.01624.02463.02524.03827.01461.02219.02759.04181.01151.01742.03772.05707.00177.00268q.62429.94475,1.26059,1.88083a2.57919,2.57919,0,0,1,1.13388,1.64771q1.42977,2.05224,2.91671,4.061a2.579,2.579,0,0,1,1.199,1.6005q1.511,1.993,3.07767,3.94067a2.575,2.575,0,0,1,1.2615,1.55008l.03174.03854.00977.01184.036.04371.00595.0072.03711.045.00512.00623q1.5331,1.85769,3.11408,3.66888a2.55743,2.55743,0,0,1,1.318,1.49286q1.66553,1.86494,3.38358,3.68106a2.55769,2.55769,0,0,1,1.37671,1.4389c.12063.12464.23657.24408.35757.36838l.00186.00192.0437.04487.00238.00244.1084.11117.032.03278.01629.01669.03583.03665.01508.01541.04006.041.01047.01071q1.03569,1.05849,2.08924,2.0994l.00344.00338.04862.048.00937.00925.04269.04211.013.01285.04523.04455.00665.00656.05268.05188.01242.01224.03857.03794.02173.02136.02832.02786.02481.02435.02686.0264.02554.02509.02426.02377.02682.02634.01789.01754.06.05878.01913.01877.03195.03128.018.01761.03222.03152.017.01667.03482.034.01023.01.09118.08905a2.54886,2.54886,0,0,1,1.431,1.38028q.94734.9034,1.90952,1.79379l.00217.002c.07959.07364.15332.14172.233.21521l.00754.007.04071.0375.01043.00962.04047.03729.00537.00491.13321.1225.00766.00705.03909.03589.012.011.0379.03476.01306.012.03879.03552.008.00732.13166.12052.00726.00665.04126.03772.00848.00775.04212.03845.00689.00629c.08.07309.15589.14218.23609.21512l.00043.0004.04785.04351.00027.00025c.20459.186.41379.37515.61926.56015a2.55734,2.55734,0,0,1,1.48768,1.32388q.29255.25735.58639.51355l.00278.00244.05444.04746.00488.00424.05429.04724.00345.003.11209.09744.019.01648.0339.02945.02484.02158.02765.024.02912.02523.02279.01978.031.02689.011.00955.08554.074.0032.00275.0444.03839.00647.00559.04538.03921.00382.00333c.86191.74432,1.7258,1.4758,2.60235,2.20334a2.52019,2.52019,0,0,1,1.52777,1.25354c.56043.45456,1.119.90191,1.68522,1.34961l.00543.0043.04748.03754.00315.00247.1484.11712.00312.00244.03839.03028.01724.01358.03479.02737.02386.0188.02951.02323.03214.02526.02255.0177.11392.08948.01532.012.043.03375.016.01257.0448.0351.013.01016.05209.04077.00525.00412.18207.14224c.00427.00333-.001-.00082.00323.00254l.05759.04489.00372.0029q.64623.50372,1.29736,1.00146a2.55778,2.55778,0,0,1,1.58908,1.20044q2.01056,1.501,4.06431,2.94373a2.54518,2.54518,0,0,1,1.63223,1.13284q2.06525,1.416,4.1755,2.77508a2.54122,2.54122,0,0,1,1.67475,1.065c.143.08978.29156.1828.43484.27218l.01685.0105.04019.02506.01981.01236.03988.02484.02036.01266.03833.02387.02145.01333.07846.04877.01541.00958.03537.022.02518.01562.03336.02069.0296.01834.03158.01959.02768.01716.03388.021.02646.01636.12845.07944.02127.01312.03674.02267.0238.01468.037.02283.023.01419.03723.023.01984.01221.14352.08828.00986.00608.04486.02752.01456.00894.04672.02866.00806.005q1.35173.829,2.7189,1.63336a2.562,2.562,0,0,1,1.72318,1.00058q2.16727,1.24191,4.37335,2.42282l.0003.00012a2.56511,2.56511,0,0,1,1.764.93118c.33484.17426.67261.3487,1.00867.52085l.00232.00116c.09741.04989.1936.09906.29113.14877l.00006.00006.05347.02722.0094.00479.05127.02613.00885.00445.05182.0264.00458.00232.16632.08444.00714.0036.04584.02323.01971.01.04181.02117.02057.01041.04193.02121.022.01111.0409.02066.01074.00546.08087.0408.031.01563.03326.01675.03113.01566.03326.01675.03266.01645.03027.0152.03772.019.02722.01367.063.03162.00513.00256.06054.03037.017.00851.05115.02561.01562.00781.0514.02573.01605.008.05774.02884.00732.00366.2063.10288c.00494.00244-.00092-.00049.004.00195q.83824.41721,1.68152.82556a2.57175,2.57175,0,0,1,1.80267.86014l.03277.01541.02259.01059.03692.01734.03217.0151.02972.01392.04792.02249.0158.00738.20838.09745.0014.00064q2.05088.95718,4.13056,1.86221a2.49185,2.49185,0,0,0,.99621.20825l.002,0a2.492,2.492,0,0,0,.8396.57883q1.76073.742,3.54119,1.44626l.00507.002.065.0257.00867.00341.06793.02683.00092.00037.21435.08438.01258.00494.05639.02213.01728.0068.05066.01984.02087.00818.05176.02029.01672.00653.1377.0538.01825.00715.04919.01916.0249.00971.04486.01748.02326.009.04754.0185.02167.00842.055.02136.01288.005.06909.02679.00214.00086a2.49367,2.49367,0,0,0,.90259.16949q.05172,0,.10327-.00213a2.49206,2.49206,0,0,0,.86255.54446q1.05908.39642,2.12475.77951l.0011.0004.06671.024.01178.00422.056.02011.01752.00625.04956.01776.0221.00791.06451.02307.04.01428.02539.00907.04578.01632.01971.007.04895.01743.01392.005.05377.01914.00513.00183c.66717.2373,1.32861.468,1.99951.69735l.0086.00293.03669.01252a2.49637,2.49637,0,0,0,.80407.13345q.10281,0,.20453-.00842a2.492,2.492,0,0,0,.88452.50937q2.11066.69369,4.24463,1.33453l.00464.00137.06885.02066.00592.00177q.1462.04386.29242.08737l.01422.00425.05792.01721.01685.005.053.01575.01409.00418a2.57706,2.57706,0,0,1,1.91919.55747q.22487.0639.4502.12725l.0003.0001q.14859.04179.29712.08328l.01123.00311.06.01676.01776.005.05078.01413.0246.00684.04736.01318.024.00668.05036.014.021.00583.06671.01849.04346.012.02423.00668.04669.01291.02155.00595.04736.01306.019.00525.0523.0144.0091.00251c1.15094.31674,2.29425.61865,3.45465.91217a2.55275,2.55275,0,0,1,1.9306.47653q.30258.07287.60571.14468l.00336.0008.07031.01663.00745.00174.06622.01565.00946.00223.06574.0155.009.00211.14887.035.00238.00055.06829.016.02234.00525.04676.01093.03039.00708.04016.00937.03253.0076.03974.00924.03107.00724.04089.00949.03162.00735.05664.01312.042.00974.03876.009.0346.008.03723.0086.03589.00827.03253.00748.0412.00949.02594.006.04627.01062.0169.00388.24115.05517.01142.0026.05292.01208.01629.0037.05463.01242.01044.00238.059.01336.00317.00074c.10944.02481.2146.04855.32416.07315l.00323.00073.06012.01349.0094.00213.05982.01337.003.00067c.13147.02945.25976.058.39135.08716l.00238.00052.06318.014.00409.00088c.10968.02426.21673.04779.32653.07184h.00006l.062.01358.00677.00146.06171.01346.00305.00067.064.014.00013,0,.26025.05646.00433.00094.05921.01276.00958.00208.05566.012.01429.00308.056.01206.00738.00155c.08789.01889.16248.03488.25049.05362l.01.00214.0517.011.019.00406.05084.01081.01728.00366.0512.01086.01868.004.05151.01093.01184.00247.17176.03625.01953.00409.015.00315a2.51156,2.51156,0,0,0,.51428.05346,1.54085,1.54085,0,0,1,1.44446.3465q2.44629.48477,4.91693.9006a2.514,2.514,0,0,0,.41785.03507,1.68825,1.68825,0,0,1,1.546.28378c1.6471.25763,3.30646.49289,4.96863.70383a2.52088,2.52088,0,0,0,.31042.01922,1.87345,1.87345,0,0,1,1.65979.21942c1.25379.1446,2.5174.2764,3.77918.39411l.01806.00171.04456.00412.03088.00287.03833.00357.0387.00357.03125.00287.04639.00427.027.00247.05914.00543.012.00107q.42756.039.85565.076.10968.00948.21778.00943a2.06641,2.06641,0,0,1,1.76928.15063c.17792.01331.35053.026.52857.03873l.00921.00067.04633.00333.03156.00226.03491.00247.04461.00317.02356.00165.05988.00421.01117.0008q2.09766.14734,4.20892.24484.05879.0027.11713.00268a2.29987,2.29987,0,0,1,1.8797.078q1.00973.03505,2.02234.05862l.01239.00028.06183.00143.01867.00043.05365.00119.02466.00055.04858.0011.02887.00061.04053.00088.03571.00076.02807.00061c.8786.01868,1.74793.0307,2.62976.03629h.01056a2.50624,2.50624,0,0,1,1.97541.00143l.01263,0q2.50836-.01232,4.9997-.09533a2.30867,2.30867,0,0,1,1.88427-.07526c.035,0,.0705-.00073.10584-.0022.12146-.00543.248-.0112.3695-.01687l.00531-.00025.05719-.00268.0196-.00092.04687-.00223.03327-.00155.0368-.00177.04224-.002.03033-.00146.067-.00327c.0058-.00027-.002.00012.00384-.00018q2.14957-.10459,4.28534-.26117a2.09218,2.09218,0,0,1,1.78211-.14865c.06811,0,.137-.00278.20611-.00842.32617-.02762.64813-.05582.97388-.08527l.00336-.00031c.11425-.01034.22357-.02032.33776-.03088l.00342-.0003.05542-.00513.01795-.00168.05011-.00467.02362-.0022.04651-.00433.02581-.00241.04779-.00449.02222-.0021.04913-.00461.02234-.00211.165-.01568.02393-.00229.04352-.00415.03076-.003.04034-.00388.03235-.00311.03986-.00388.03381-.00326.04034-.00391.03-.0029.04309-.00421.02991-.00293.04254-.00415.028-.00274.09362-.00922.01795-.00177.04755-.0047.02484-.00244.04724-.0047.02478-.00247.04626-.00461.02545-.00257.04834-.00482.02149-.00216.05029-.00507.01819-.00183c.10828-.01093.21851-.02213.32666-.03323l.0022-.00025.06384-.00656.0069-.0007.06445-.00669.00183-.00018c.58637-.0607,1.17359-.12457,1.75818-.1911a1.87477,1.87477,0,0,1,1.6604-.21655,2.52524,2.52524,0,0,0,.31433-.01972q2.4873-.312,4.95252-.69394a1.7122,1.7122,0,0,1,1.56048-.283,2.51339,2.51339,0,0,0,.40534-.033c.45788-.07632.91906-.15509,1.37573-.235l.00287-.00049.05377-.00943.0202-.00354.0473-.0083.02466-.00436.04413-.00775.03247-.00574.03632-.00641.04944-.00873.02081-.00366.14874-.0264.00916-.00162.06714-.012.00744-.00134.07154-.01276.00189-.00036q1.46109-.2613,2.91357-.54688a1.54656,1.54656,0,0,1,1.44824-.34424,2.50875,2.50875,0,0,0,.50843-.05221q2.46185-.51357,4.89422-1.09568a1.37725,1.37725,0,0,1,1.31952-.39761,2.507,2.507,0,0,0,.6037-.0741c.19531-.0491.38568-.09732.58069-.14706l.02411-.00616.032-.00815.04541-.0116.01923-.00494.05938-.0152.00953-.00244q1.73721-.44528,3.46008-.92527l.03607-.01.03229-.009.04443-.01242.01917-.00534.054-.01511.00714-.002c.145-.04056.27893-.07825.42371-.11917a1.24205,1.24205,0,0,1,1.20465-.44977,2.50087,2.50087,0,0,0,.70483-.10177c.28827-.08509.58179-.17252.86939-.259l.00329-.001c.17042-.05127.33912-.1023.50934-.15409l.0008-.00027c1.13836-.34632,2.27575-.70539,3.404-1.07434a2.48952,2.48952,0,0,0,.87585-.505q.10354.0087.20832.00876a2.49713,2.49713,0,0,0,.80481-.1337q1.2962-.44059,2.58331-.901l.00024-.00009.21656-.07764.01629-.00586.05042-.01812.02722-.00977.03851-.01389.03376-.01217.03265-.01175.03577-.01291.0274-.00989.16058-.05807.00519-.00189.05353-.01938.01257-.00455.054-.01962.00781-.00284c.45728-.16605.90271-.3299,1.35822-.49967a2.49078,2.49078,0,0,0,.85913-.5415c.03552.00153.071.00232.10675.00232a2.494,2.494,0,0,0,.89953-.16834q2.33569-.90134,4.63843-1.86779a2.49124,2.49124,0,0,0,.84052-.57764l.00586,0a2.49165,2.49165,0,0,0,.99279-.20679q1.43483-.62173,2.85614-1.26849l.00293-.00134.06617-.03009.00586-.00269.06494-.0296.00494-.00226.20746-.09479.01428-.00656.05145-.02353.02027-.0093.04815-.0221.01954-.00894.05114-.0235.01569-.0072.13458-.06189.016-.00742.0506-.02328.01972-.0091.04785-.02209.02093-.00964.05011-.02317.01538-.00711.20465-.09472.0102-.00473.061-.02833.00635-.00292q.24618-.11436.49194-.22941a2.57825,2.57825,0,0,1,1.80634-.85852l.0105-.00506.05346-.02582.0188-.00906.04621-.02234.02264-.011.0451-.02179.02167-.0105.04779-.02313.01868-.009.06348-.03079.02313-.01123.04162-.02021.02985-.01452.03357-.01633.03418-.0166.02771-.01349.039-.019.02081-.01013.15113-.07373.01147-.00559.047-.023.0155-.0076.04688-.02292.01495-.00732.04944-.0242.00549-.00269q1.77868-.87131,3.53674-1.78311a2.56356,2.56356,0,0,1,1.76471-.92816l.00287-.00153q.68784-.36689,1.37213-.7398l.00281-.00153.06714-.03662.00037-.00018.135-.07376.00988-.00541.05274-.02883.0227-.01242.0401-.022.026-.01422.0351-.01922.03174-.01743.02557-.014.14472-.07953.00824-.00451.05169-.02845.00659-.00366.05262-.029.00531-.00293c.59326-.32693,1.17846-.65393,1.76739-.98758l.00806-.00458.04785-.0271.02008-.01141.04065-.023.0589-.03345.01355-.00769.05212-.0296.01258-.00717.05828-.03317.003-.00168.202-.11515a2.57555,2.57555,0,0,1,1.72925-1.0007l.01227-.0072.04107-.02411.02094-.0123.04767-.02795.01648-.00971.05987-.03518.02735-.01612.03332-.01959.03131-.01843.03192-.01883.03046-.01794.03052-.018.03235-.0191.02758-.0163.13251-.07831.01758-.01037.04187-.02478.01776-.01056.04376-.02591.0141-.00833.04645-.02756.00543-.00324.21887-.13006.00306-.0018q1.23687-.73632,2.45807-1.49106l.00305-.00186.204-.12625.02105-.013.03431-.02134.02673-.01657.03192-.0198.03522-.02185.02264-.0141.05487-.03412.0047-.00293q.19858-.12351.39667-.2475a2.57386,2.57386,0,0,1,1.6875-1.06964l.01709-.011.0163-.01046q2.09563-1.34606,4.1466-2.74793a2.5368,2.5368,0,0,1,1.63117-1.12857l.10913-.07651.01043-.00735.03492-.02448.02758-.01937.02845-.02.032-.0225.02637-.01852.04089-.02878.01672-.01178.06067-.04272.001-.0007.06024-.04242.00928-.00653.05206-.03675.01129-.008.05683-.0401.00165-.00119q1.11492-.78768,2.217-1.59241l.006-.00442.0589-.04307.002-.00143.12341-.09027.01038-.00763.046-.03366.02283-.01675.0357-.02616.02344-.01724.03406-.025.02679-.01969.02509-.01843.12774-.094.0113-.00831.04614-.034.0061-.00452c.223-.1643.43958-.3247.66181-.49008a2.55385,2.55385,0,0,1,1.58972-1.19717l.012-.00913.04163-.03177.021-.016.037-.02829.02228-.017.03876-.0296.01837-.014.05633-.04312.01545-.01181.0426-.03259.02118-.01621.0365-.028.02233-.01715.03711-.02844.02155-.01651.03491-.02683.02393-.01834.05493-.0422.01276-.0098.04467-.03436.02246-.01731.03437-.02639.02472-.01908.034-.02615.02295-.01767.04224-.03259.01385-.01069.05841-.04507.00574-.00442.05188-.0401.01727-.01331.04084-.03162.01861-.01437.04285-.03317.01453-.01123.05181-.04013.0055-.00428.18323-.14218.00183-.00143q1.326-1.03042,2.6314-2.08585a2.57889,2.57889,0,0,1,1.54792-1.2662q1.143-.946,2.26959-1.91111l.00421-.00357.05206-.04464.00885-.0076.04773-.041.01044-.00891.11231-.09646.01556-.0134.03888-.03348.02087-.01794.03351-.02884.02417-.02088.03021-.026.02454-.02118.03033-.02612.045-.03882.03015-.02606.02984-.02579.02271-.01962.03241-.028.022-.01908.03089-.0267.023-.02.03082-.02667.02075-.018.11847-.10275.01569-.01361.03448-.02991.01917-.01669.035-.0304.0163-.01419.03692-.0321.00855-.00745.129-.11233.01471-.01285.03522-.03073.01953-.017.0329-.02875.01959-.01712.03369-.02942.02051-.01794.05255-.04593.02942-.02576.02545-.02231.02985-.02615.02271-.01987.03363-.02951.01312-.0115a2.57408,2.57408,0,0,1,1.49457-1.32614q.28931-.25965.57727-.52048l.00909-.00821.04547-.0412.01312-.0119.04114-.03729.015-.01358.04589-.04166.00843-.00766.05365-.04877.01776-.01611.03418-.0311.02624-.02386.02484-.02262.03119-.02844.01911-.01739.03351-.03055.01306-.0119.17895-.16336.00519-.00476c.56012-.51215,1.11389-1.02515,1.66724-1.54453l.00116-.00107.03991-.03747.01392-.01306.03442-.03235.01929-.01819.03058-.02875.03589-.03375.01416-.01334.05475-.05154.00384-.00363.052-.049.0047-.00449.05359-.05054.00073-.00073q.22715-.21437.45337-.42947a2.57886,2.57886,0,0,1,1.44165-1.38633q.36255-.3527.72315-.70752l.0058-.0057.04626-.04556.00965-.00947.04486-.04422.00927-.00912.04956-.04889.0279-.02753.021-.02075.03113-.03073.01825-.01807.03571-.03524.0083-.00821c.84784-.83847,1.67859-1.677,2.50915-2.53269a2.55614,2.55614,0,0,1,1.37854-1.43652q.48386-.51.9635-1.02371l.00128-.00138.04737-.05075.014-.015.034-.03644.01941-.02081.03088-.0332.0185-.01987.03088-.03317.05371-.05771.01-.01078.0351-.03775.01147-.01236.03479-.0375.01239-.01334.03638-.03921.00641-.0069q1.02851-1.10893,2.0357-2.23364a2.554,2.554,0,0,1,1.31928-1.49q1.6462-1.88073,3.23889-3.809a2.55058,2.55058,0,0,1,1.25757-1.54044q.70531-.8741,1.39807-1.75558l.0022-.00275.03814-.04861.00275-.00348c.067-.08536.12885-.16428.19574-.24976l.00574-.00729.035-.04474.00708-.00913.03467-.04434.00543-.007.15161-.19439.0072-.00922.03486-.0448.00555-.00714.03644-.04685.00226-.00289.11712-.15085.00116-.00147.0354-.04565.00653-.00849.03492-.045.00653-.00845.03491-.04511.00464-.006.15179-.19644.00653-.00852.03443-.04464.00622-.00806c.07953-.10321.1546-.2008.234-.30417l.00244-.00317q.228-.29722.45465-.59525a2.56438,2.56438,0,0,1,1.19806-1.59427l.00159-.00219.04419-.05954.00213-.0029.04425-.05966.00171-.00226q.90528-1.2215,1.78955-2.45929l.00776-.0108.0335-.047.01355-.019.02918-.0409.01465-.02057.02551-.03573.01831-.02573.02-.0281.04541-.06379.01318-.01855.02961-.04166.00946-.0133.0332-.04673.003-.00421c.25171-.35452.49994-.70691.749-1.06338a2.52793,2.52793,0,0,1,1.12476-1.62931c.21759-.319.431-.63421.64654-.95474l.00043-.00067.03455-.05142.00372-.00549.03247-.04834.00757-.01127.08636-.12887.01966-.02939.01745-.026.02448-.03656.01526-.02283.02771-.0415.01129-.01688.03644-.05453.00348-.00525q.51982-.7788,1.03161-1.56363l.00025-.0004.12762-.196c.003-.00455-.002.00308.001-.00147l.03741-.05752.01447-.02237.02337-.036.01929-.02973.01666-.02572.025-.03858.00622-.00958c.16571-.25583.33368-.51645.49811-.77319a2.54851,2.54851,0,0,1,1.06262-1.68024l.0066-.01059.023-.0369.01617-.02594.01978-.03164.04028-.06467.01208-.01938.02533-.04068.011-.01776.02777-.04471.0069-.011.03039-.04895.00177-.00284q.81062-1.305,1.59723-2.62314l.00019-.00031.03045-.051.00629-.01062.02814-.04718.00787-.01322.02679-.04492.00873-.01474.04438-.07455.0169-.02851.015-.02517.024-.04041.01148-.01938.02917-.04922.0072-.01212q.25764-.43455.51282-.87066a2.57023,2.57023,0,0,1,.99793-1.72852l.106-.18622.00538-.0094.02264-.03988.01318-.02332.01935-.03409.01862-.03277.01587-.02805.02252-.03979.01257-.0221.07239-.128.00629-.01123.03057-.05411.00721-.01275.03155-.056.00458-.008q1.03427-1.83486,2.02508-3.69711a2.57918,2.57918,0,0,1,.9292-1.77106q.08908-.17222.17774-.3446l.00311-.00605.03107-.06036.00525-.01029.03033-.05908.004-.00775.03418-.06671.00024-.00037.06824-.13333.00909-.01776.02417-.04721.01087-.02133.02277-.04456.01092-.02145.0257-.05026.00738-.01459.03357-.06586.00317-.00622.02991-.05872.00977-.01926.02313-.04538.01251-.02462.02057-.04059.01257-.02475.02185-.04309.01111-.02191.06555-.12937.00971-.01916.02386-.04727.01007-.01987.024-.0477.009-.01779.02642-.05228.007-.014.03009-.05975.00336-.00665.03412-.06772.00268-.0054.03077-.06119.00634-.0126.02759-.05493.00647-.01288.02844-.05674.00513-.01019q.06867-.13692.13709-.274l.00207-.00418q.55765-1.1173,1.09961-2.24368a2.57948,2.57948,0,0,1,.857-1.80789q.21405-.45831.42548-.91809l.00372-.00818.02588-.05621.00934-.02036.01959-.04279.01282-.02786.014-.03058.09747-.21313.0033-.00714.02508-.0549.00244-.00541c.22791-.49948.45093-.99456.67426-1.49658l.00232-.00531.02454-.05511.003-.00684.02465-.05551.00165-.0036.06989-.15775.0108-.02444.0141-.03186.01611-.03647.01264-.02853.01837-.0416.01-.02273.02283-.05167.0064-.01465q.25142-.57037.49878-1.14282a2.58,2.58,0,0,1,.7826-1.84021l.05841-.1398.0047-.01117.02295-.055.00769-.01847.01953-.04684.01013-.02436.01935-.04653.00854-.02057.0221-.0531.02453-.05909.0055-.01321.02221-.05365.00324-.00781.02344-.05664.00152-.0036q.5528-1.33543,1.0827-2.67893l.00965-.02438.01459-.037.01306-.03323.01214-.03089.017-.04327.00891-.02265q.22761-.579.45111-1.16009a2.57975,2.57975,0,0,1,.70716-1.87018q.28518-.76785.56341-1.539l.00006-.00015q.56955-1.57925,1.10932-3.17249a2.57994,2.57994,0,0,1,.631-1.89883q.14456-.44371.28687-.88858l.0025-.00769.02-.06275.0047-.01474.01709-.05347.00677-.02127.01526-.04794.00781-.02454.0149-.04669.00744-.0234.02088-.06577.01147-.03613.00983-.031.01385-.04364.00714-.02255.01429-.04517.00677-.02142.01538-.04883.004-.01248c.03174-.10062.06537-.20755.097-.30826l.00025-.00088c.30749-.98056.60766-1.96881.89813-2.95676a2.52825,2.52825,0,0,1,.54736-1.90225q.67961-2.41447,1.29065-4.855a2.52407,2.52407,0,0,1,.46887-1.92011c.15448-.64868.30378-1.2923.451-1.94379l.001-.00442c.02966-.13138.05811-.25775.08746-.38925l.00092-.00406.01391-.06241.00086-.00388.014-.06292.00061-.00278c.02929-.13153.05786-.26059.08685-.39224l.00031-.00128c.06762-.30719.134-.61258.19995-.92038l.00055-.00251.01361-.06362.00067-.00293.01361-.06373.00049-.00222c.0188-.088.03674-.17231.05536-.26032l.00055-.00262.0119-.056.003-.01431.0105-.0495.005-.0239.00958-.04532.00538-.02545.00909-.04318.0069-.033.00793-.03757.01441-.06885.00286-.01376.01258-.06009.00348-.01642.0122-.05865.00318-.01511.013-.06231.00195-.0095.015-.07238a2.57941,2.57941,0,0,1,.39544-1.96158q.08944-.4574.17645-.91568l.00422-.02191.009-.04731.007-.03729.006-.03164.00842-.0445.00427-.0227.00959-.05072.00244-.01307c.1546-.82067.30157-1.63351.44452-2.45819l.00073-.00409.01068-.06155.002-.01132.00953-.05539.00451-.02585.00733-.04254.01233-.0719.00067-.00394.01233-.07171.00122-.00718.01226-.07193.00007-.00009q.07241-.42411.14276-.84887a2.57922,2.57922,0,0,1,.31555-1.97528q.07113-.46212.13971-.9249l.0003-.00192.01075-.07236.0014-.00986.00915-.06192.00275-.01861.00824-.056.00281-.019.00787-.05383.00324-.02185.00787-.05386.003-.02042.01032-.07077.00488-.03363.00543-.03735.006-.04123.00427-.02982.00635-.04373.004-.02759.00641-.04458.0036-.02485.007-.04843.00274-.01919.00757-.05252.001-.00736.03711-.26071.00067-.0047.00891-.06314.00073-.00522.009-.06412.00042-.003c.0943-.66995.18531-1.34567.27192-2.01806l.00225-.01737.00641-.0498.00293-.023.006-.04648.00385-.03021.005-.039.00568-.0449.00336-.026.01874-.14825.00177-.014.00787-.06228.00152-.0123.00837-.06638.00091-.00729.01892-.15161a2.5509,2.5509,0,0,1,.234-1.97309c.057-.50528.11176-1.00973.16437-1.51629l.00049-.00483.00659-.06356.00079-.00742.00635-.06143.00092-.00894.01776-.17292.00287-.028.0036-.0358.00415-.04034.00305-.03046.00446-.04382.00292-.029.00483-.04792.0025-.025.00525-.05218.00213-.02121.0066-.06611.00067-.00668.02276-.23007.00061-.00659.00678-.06928.00091-.009.0066-.06781.00085-.00891q.02253-.23072.04431-.46137c.00055-.0057-.00018.00217.00037-.00354l.0069-.07324.00042-.00485.007-.07407c.00055-.0057-.0003.0036.00024-.0021q.018-.19281.03571-.386l.00073-.0079.006-.0658.00141-.01523.00555-.06124.00128-.0142.00556-.06149.0014-.01544.00617-.06821.00048-.00583.01362-.15283.00116-.01288.00524-.05908.00245-.02749.004-.04538.00293-.03333.00324-.03653.00348-.0405.00262-.03006.00391-.04473.00189-.02149.00452-.0524.00036-.00381c.01331-.15445.026-.30384.03894-.45841a2.53579,2.53579,0,0,1,.15442-1.97867c.12042-1.66534.21716-3.33242.29028-5.01049a2.52538,2.52538,0,0,1,.075-1.97687c.02685-.8298.04767-1.65225.0628-2.485l.00006-.00308.0011-.05951.00025-.0155.00091-.05063.00043-.02627.00079-.04487.00055-.032.00061-.03836.00073-.04135.00049-.032.001-.0593.00018-.0123.00354-.23282V503.075q.01365-.938.01734-1.87854a2.57775,2.57775,0,0,1-.00342-2.00421q-.004-.54822-.01148-1.09549l-.00006-.00326-.001-.07154-.00013-.01031-.001-.06488-.00019-.01431-.00091-.0629-.00018-.01312-.001-.06815-.00012-.00735-.00373-.23148-.00012-.00821-.0011-.06546-.00036-.01978-.001-.05606-.00037-.02191-.00091-.05136-.00049-.02621-.00092-.05078-.00042-.02378-.001-.05276-.00043-.02231-.0011-.05811-.00036-.017-.00141-.0734-.00006-.00165-.00152-.0758-.00031-.01548-.00116-.059-.00055-.02548-.001-.04806-.00061-.02939-.001-.04532-.00067-.03088-.00092-.04416-.00067-.02933-.001-.04718-.00061-.02814-.00116-.04934-.00055-.02442-.00128-.0549-.00043-.02063-.0036-.14941-.00042-.01938-.00141-.05582-.00055-.02289-.00128-.051-.00061-.02585-.00134-.05142-.00055-.02277-.00134-.05228-.00061-.02377-.00141-.05359-.00055-.02109-.00165-.05972-.00036-.01507-.00415-.1511-.00043-.01587-.00165-.05865-.00061-.022-.00152-.05253-.00074-.02569-.0014-.0495-.00073-.02533-.00147-.04987-.00079-.02575-.00153-.05326-.00061-.01968-.00183-.06006-.00043-.01529-.00714-.22845-.0003-.01053-.002-.062-.00067-.02216-.00183-.05472-.00061-.01928-.00183-.05674-.00067-.01919-.00189-.05808-.00061-.017-.00208-.062-.00043-.01306-.01062-.30438-.00018-.00458a2.55059,2.55059,0,0,1-.08215-1.98535q-.11829-2.51481-.30786-5.012a2.54977,2.54977,0,0,1-.16181-1.98374q-.10564-1.20941-.22766-2.41388l-.00012-.00091-.00757-.0745c-.00055-.0057.00012.00092-.00049-.00479l-.00757-.07446-.00018-.00168-.0238-.23157-.00061-.00537-.00708-.06845-.00165-.01565-.0061-.05848-.002-.01889-.00592-.05639-.00207-.02011-.00556-.05259-.00244-.02322-.00629-.05945-.0014-.01321-.01611-.1514-.0008-.00775-.00708-.066-.00189-.0177-.00628-.05856-.00165-.01535-.00659-.0607-.00165-.01551-.00684-.0632-.00116-.01043-.00757-.06955-.00061-.00586q-.06756-.61964-.13952-1.23807a2.57926,2.57926,0,0,1-.2425-1.98477q-.31822-2.48635-.70629-4.95038a2.55713,2.55713,0,0,1-.32081-1.96417c-.04156-.24552-.084-.493-.12658-.73816l-.00324-.01877-.00818-.047-.00494-.02835-.00684-.03906-.00683-.039-.00556-.03186-.01208-.069v-.00016l-.01349-.07687-.00018-.00086-.01319-.07492-.00085-.00494-.01245-.07059-.00122-.00677q-.17615-.9966-.36365-1.98917l-.00269-.01428-.01092-.05759-.00391-.02054-.0094-.04974-.00494-.02606-.00836-.044-.00586-.0307-.00678-.03558-.03039-.15921-.00208-.01081-.01153-.06005-.00128-.00675-.012-.06247-.00067-.00335c-.07135-.371-.14526-.74814-.219-1.11832a2.55472,2.55472,0,0,1-.40052-1.951q-.09677-.45786-.19592-.91483l-.00262-.012-.01264-.0582-.00464-.02148-.01074-.04926-.0061-.02792-.00836-.03845-.00788-.03589-.00586-.02683-.05194-.23694-.00152-.00689-.01392-.063-.00024-.00122q-.37565-1.703-.78443-3.39276a2.55509,2.55509,0,0,1-.47888-1.93105q-.29856-1.17505-.6131-2.34361l-.001-.00365-.01911-.07089-.00116-.00414q-.03021-.11226-.06073-.22464l-.00024-.001-.01868-.06876-.00427-.01562-.01526-.05631-.00476-.01746-.01538-.05644-.0044-.0162-.0169-.06185-.00269-.01-.0199-.07283-.00146-.00528-.01813-.06611-.00543-.01979-.01355-.04955-.00757-.02754-.0119-.04335-.00781-.02841-.0116-.042-.00812-.02942-.01275-.04633-.00654-.02363-.01837-.06652-.00689-.025-.01307-.0473-.00842-.03029-.01086-.03923-.00971-.035-.00952-.03427-.01013-.03634-.009-.03232-.01068-.03845-.00879-.0315-.01044-.03732-.00824-.02959-.02252-.08064-.00659-.02358-.01172-.04187-.00769-.02732-.01148-.0409-.00811-.02894-.01154-.04123-.00708-.02523-.01276-.0453-.00525-.01852-.04852-.17214-.00207-.00731-.0141-.04982-.00537-.01889-.01349-.04757-.00605-.02137-.013-.0458-.0061-.02153-.0141-.04959-.00256-.00892-.036-.12658a2.551,2.551,0,0,1-.55646-1.90845c-.07147-.24-.14172-.47412-.21423-.71365l-.00037-.00122-.07251-.23915-.00555-.01824-.01233-.04051-.00861-.02821-.01184-.03884-.01-.03279-.01044-.03426-.01178-.03852-.009-.02954-.01691-.05512-.00384-.0127-.0448-.146-.00159-.00507-.02106-.0686-.00189-.006q-.34442-1.11891-.70343-2.23124l-.00012-.00022q-.04724-.14652-.09473-.29272l-.00573-.01764-.01575-.04848-.00989-.03042-.01141-.035-.0127-.039-.00769-.02348-.01513-.04645-.00251-.00757c-.05505-.16876-.11-.33605-.16552-.50459a2.55565,2.55565,0,0,1-.63465-1.88724q-.81343-2.37354-1.69415-4.71817a2.53245,2.53245,0,0,1-.70715-1.85055c-.052-.13368-.10505-.26955-.15729-.40308l-.00018-.00038c-.03016-.077-.063-.16078-.09333-.23776l-.004-.01-.01685-.04294-.00983-.025-.01513-.03836-.01191-.03011-.01483-.03767-.01049-.02649-.016-.04061-.01031-.02609-.02649-.06686-.01379-.03491-.014-.03525-.01257-.03171-.01429-.03592-.01214-.03068-.01471-.037-.01227-.03084-.01392-.03506-.01275-.032-.01441-.0362-.00879-.02194-.03534-.08865-.006-.01525-.01709-.04274-.01-.025-.01648-.04118-.00927-.02326-.0174-.04343-.00848-.0211-.01825-.04559-.00421-.01058-.06934-.17259-.00134-.00331-.02283-.05672-.00262-.00644-.02308-.05722-.0014-.00361c-.35651-.88414-.722-1.76915-1.09259-2.646a2.554,2.554,0,0,1-.78491-1.82747l-.00177-.00409q-.67145-1.53876-1.37177-3.062l-.00165-.00359-.02886-.06279-.00458-.00992-.02918-.06344c-.00232-.005.00006.00015-.00226-.00482l-.06237-.1352-.01007-.02185-.01947-.04213-.014-.03015-.016-.0347-.01465-.03172-.01477-.03177-.01673-.03609-.00818-.01765-.07324-.15782-.00372-.008-.02557-.05489-.0022-.00482c-.11579-.2487-.2312-.495-.34808-.74306a2.56214,2.56214,0,0,1-.86023-1.79806q-.76786-1.58163-1.56672-3.14516l-.0036-.007-.02984-.05845-.00672-.01309-.02838-.05549-.00567-.01111-.03009-.05869-.00452-.00886-.03443-.06706c-.0025-.00487.00013.00018-.00238-.00469l-.03-.05836-.01221-.02369-.02124-.04138-.0138-.02676-.018-.035-.01636-.03171-.01636-.0318-.017-.03305-.01227-.02373-.07556-.14633-.00531-.01027-.02655-.05134-.00415-.00806-.02765-.05341-.00165-.00312c-.08051-.15546-.159-.30645-.24-.46163a2.54535,2.54535,0,0,1-.92914-1.756c-.08014-.14932-.15857-.295-.23907-.44409l-.00721-.01332-.02423-.04474-.01636-.03026-.0158-.02924q-.89174-1.64742-1.81781-3.27343l-.00672-.01178-.02826-.04965-.01538-.02694-.01825-.032-.01971-.03453-.01367-.024-.024-.042-.00214-.00377c-.06225-.109-.12317-.21529-.18573-.32413a2.56027,2.56027,0,0,1-1.00207-1.72167l-.0177-.03-.014-.02364-.02179-.03693-.01422-.02406-.02155-.03647-.01507-.02545-.02185-.037-.00751-.01272-.05511-.093-.0055-.00925-.024-.04057-.01221-.02065-.024-.04035-.01135-.01918-.02509-.04224-.00866-.01454-.12372-.20786-.006-.01-.02814-.0472-.0069-.01155-.02832-.04741-.00622-.01043c-.05591-.09362-.10627-.17775-.16236-.27125l-.00274-.00454-.0315-.05252-.00256-.0042c-.6286-1.04695-1.26233-2.07773-1.91223-3.11015a2.53029,2.53029,0,0,1-1.06439-1.66985c-.06495-.10061-.129-.19967-.19416-.30015l-.01556-.024-.01746-.0269-.02435-.03753-.013-.02-.03272-.0504-.00543-.00835q-1.21317-1.86622-2.47247-3.69916a2.56573,2.56573,0,0,1-1.1391-1.63777q-1.44572-2.05325-2.94617-4.05891a2.55274,2.55274,0,0,1-1.20093-1.58637q-1.52086-1.98534-3.09722-3.92517a2.57924,2.57924,0,0,1-1.27008-1.54472q-1.12373-1.35093-2.27424-2.6787l-.00311-.00358-.04565-.05272-.00611-.007-.04583-.05282-.00391-.00447-.09851-.11341-.01105-.01268-.03583-.04121-.017-.01942-.0315-.0362-.01654-.019-.03174-.03639-.01751-.02012-.0448-.05135-.02-.02283-.02637-.03024-.02557-.0292-.02191-.02515-.02588-.02953-.01923-.022-.029-.03315-.01587-.01812-.03076-.03516-.00244-.00276-.07941-.09056-.0047-.00537-.03613-.0412-.00916-.01041-.0368-.0419-.007-.00792-.03845-.04373-.00269-.003-.14032-.15936a2.569,2.569,0,0,1-1.32849-1.48972q-.10455-.11592-.20923-.23155l-.00042-.00047-.10114-.11156-.01648-.01819-.03064-.0338-.02405-.02647-.02124-.02339-.02887-.03178-.01556-.01708q-1.46044-1.60663-2.961-3.177a2.53261,2.53261,0,0,1-1.37714-1.42495c-.18945-.1938-.38031-.38813-.57061-.581l-.00208-.00207-.12836-.13-.0083-.0084-.03064-.031-.021-.02118-.02765-.028-.02466-.02486-.0235-.02373-.03131-.03158-.01953-.01975-.10266-.10339-.00922-.00928-.04529-.04558-.00787-.00787-.04651-.0468-.00653-.00656q-1.21132-1.217-2.44635-2.41a2.55826,2.55826,0,0,1-1.44037-1.37557q-.30149-.28468-.6051-.56862l-.01068-.01-.03619-.03384-.01618-.01511-.03381-.0316-.0199-.01855-.03137-.02925-.02277-.02124-.04834-.04508-.02991-.02786-.02221-.02072-.0315-.02928-.02258-.021-.03241-.03016-.01935-.018-.03936-.03655-.01368-.01274-.10809-.10029-.01178-.0109-.04376-.04062-.01142-.01053-.0465-.04307-.00727-.00675-.16919-.15638-.001-.00087-.05457-.0504-.00476-.00434-.05475-.0505-.00018-.00014q-1.06284-.97938-2.14191-1.94113a2.56294,2.56294,0,0,1-1.49591-1.31807q-1.88919-1.64541-3.82764-3.23831a2.52827,2.52827,0,0,1-1.53674-1.24813q-1.23769-.9936-2.49646-1.967l-.00323-.0025-.04816-.03722-.00555-.00429c-.0644-.04979-.12793-.09878-.19245-.14848l-.01349-.01041-.03833-.02948-.01806-.01391-.03577-.02752-.02209-.017-.03431-.02637-.01757-.01349-.07624-.05858-.01336-.01025-.02893-.02217-.02906-.0223-.029-.02223-.02734-.02093-.03-.023-.027-.02067-.03027-.02317-.02893-.02214-.02723-.02081-.05212-.03981-.0329-.0251-.02435-.0186-.033-.02518-.02228-.017-.03424-.02611-.02252-.01717-.03485-.02655-.015-.01133-.13678-.104-.00848-.00643-.045-.03415-.00861-.00656-.04584-.03476-.00653-.00494-.16241-.123a2.54308,2.54308,0,0,1-1.59009-1.18875q-.7143-.52767-1.43225-1.04683l-.00867-.00627-.04223-.03052-.01532-.01108-.04108-.02968-.01477-.01063-.04065-.02936-.01575-.01135-.0683-.04923-.02624-.01892-.02924-.021-.02832-.0204-.03015-.0217-.02991-.0215-.02764-.01986-.03241-.02326-.026-.01867-.03668-.02634-.03052-.02193-.04736-.03392-.02325-.01669-.03662-.02625-.02216-.01585-.03882-.02777-.02081-.01488-.04205-.03007-.01685-.012-.05139-.03671-.00849-.00606-.06073-.04335-.0086-.00612-.05029-.03586-.01734-.01237-.04333-.03087-.0177-.01261-.04505-.03206-.01446-.01025-.12146-.08632-.00934-.00665-.05029-.03566-.01606-.01138-.04309-.03057-.02075-.01469-.04083-.02893-.01795-.0127-.05236-.03706-.00715-.005-.061-.04309-.012-.0085-.04444-.03139-.02606-.0184-.03381-.02387-.02527-.01779-.03534-.02493-.024-.01689-.03943-.02776-.02014-.01417-.05609-.03946-.02539-.01789-.03387-.02378-.0268-.01882-.03161-.02223-.031-.02174-.02417-.017-.0354-.02482-.01813-.01273-.13623-.09538-.01184-.00826-.04193-.02929-.01556-.0109-.04291-.03-.0105-.00735-.047-.03278-.00183-.00131c-.08026-.056-.16376-.11413-.24414-.17a2.5433,2.5433,0,0,1-1.637-1.1241q-2.07267-1.40594-4.18744-2.75307a2.55433,2.55433,0,0,1-1.68482-1.05969c-.236-.14658-.47137-.29195-.70813-.43742l-.00439-.00269-.05023-.03084-.00849-.0052-.051-.03128-.00067-.00041-.15808-.09684-.01026-.00627-.04272-.02612-.01685-.01029-.04132-.02525-.01989-.01214-.03925-.024-.02136-.01306-.03852-.02349-.022-.01339-.06543-.03986-.02942-.0179-.03064-.01864-.03222-.01961-.02729-.01657-.03619-.022-.02661-.01615-.03674-.0223-.025-.01518-.04144-.02513-.033-.02-.04761-.02885-.02246-.01359-.03961-.024-.02454-.01484-.03936-.02379-.02326-.014-.04138-.025-.02075-.01255-.0578-.03488-.00379-.00229-.0628-.03781-.01813-.01092-.04456-.02686-.02136-.01283-.04144-.02492-.023-.01387-.04236-.02544-.01953-.01173-.05249-.03149-.01013-.00609-.06415-.03847-.00818-.00488-.05322-.03189-.02-.012-.04431-.02652-.01911-.01139-.046-.02752-.01739-.01042-.05268-.03145-.01056-.00628-.06341-.03786-.0108-.00641-.05292-.03155-.01557-.00925-.04834-.02879-.01812-.01081-.04529-.02694-.019-.01128-.04914-.02918-.014-.00831-.06409-.038L587.89,351.172l-.05981-.03544-.01715-.01017-.04639-.02748-.01959-.01159-.04419-.02614-.01953-.01155-.0509-.03011-.01172-.00694-.12714-.075-.01807-.01067-.04473-.02636-.02228-.01313-.04144-.02438-.02173-.01279-.044-.02587-.01965-.01156-.12366-.0726-.025-.01465-.03791-.02221-.02667-.01564-.03644-.02132-.02581-.01512-.04041-.02365-.02252-.01317-.04724-.0276-.01813-.01059-.05817-.034-.02264-.01319-.04047-.02359-.02649-.01547-.03515-.02046-.02875-.01674-.03345-.01947-.02228-.013a2.576,2.576,0,0,1-1.733-.99475q-1.629-.92255-3.2796-1.81085l-.00561-.003q-.2049-.11025-.4101-.21994l-.00055-.00029q-.34461-.18423-.69012-.367a2.57956,2.57956,0,0,1-1.77314-.92454q-.24143-.12415-.48333-.24755l-.00965-.00493-.05-.02548-.02625-.01336-.03467-.01767-.03308-.01685-.02075-.01056q-1.90265-.96792-3.82977-1.88908a2.55637,2.55637,0,0,1-1.8017-.84842q-.70625-.32767-1.41614-.64923l-.01349-.00612-.05212-.02358-.02155-.00976-.04382-.01979-.02759-.0125-.03369-.0152-.0357-.01613-.018-.00811-.22137-.09969-.00763-.0034-.05628-.02529-.00189-.00087c-.5011-.22493-.99548-.44407-1.49909-.66438l-.01367-.006-.0487-.0213-.015-.00654-.04773-.02086-.01867-.00813-.07148-.03118-.03521-.01535-.02753-.012-.04053-.01764-.02429-.01057-.046-.02-.02-.00868-.05517-.024-.00971-.00421q-.32126-.1394-.643-.2775a2.49188,2.49188,0,0,0-.98475-.20325l-.015,0a2.49205,2.49205,0,0,0-.84283-.57491q-1.72679-.71745-3.47242-1.39868l-.01587-.00619-.053-.0207-.01873-.0073-.05005-.01949-.02063-.008-.051-.01984-.01855-.0072-.06244-.02426-.03235-.01254-.038-.01474-.03528-.01366-.03046-.01179-.04175-.01616-.02105-.00814-.04773-.01844-.01154-.00448c-.211-.08152-.42035-.16191-.63177-.24263a2.49266,2.49266,0,0,0-.88391-.16233q-.05778,0-.11524.00268a2.491,2.491,0,0,0-.85455-.53587c-1.234-.45493-2.48291-.89916-3.72992-1.32665l-.0144-.00494-.0445-.01524-.02747-.0094-.03613-.01236-.04132-.01412-.02429-.0083q-.40375-.13788-.80847-.27383a2.49666,2.49666,0,0,0-.79645-.13085q-.10895,0-.21661.00948a2.49112,2.49112,0,0,0-.87769-.50171q-1.84553-.59642-3.71039-1.15288l-.01129-.00337-.0473-.0141-.024-.00714-.03912-.01166-.0343-.01019-.03443-.01024-.04138-.01228-.02582-.00766-.144-.04267-.00281-.00084-.06811-.02012-.01252-.00371-.064-.01884-.00616-.00184q-.26112-.077-.52253-.1531a2.55236,2.55236,0,0,1-1.91357-.54541q-1.53076-.42674-3.072-.826l-.00629-.00162-.05646-.01462-.01239-.00319-.05389-.01392-.01495-.00386-.05292-.01366-.01172-.003-.1695-.04358-.01849-.00475-.04382-.01123-.02722-.007-.03992-.0102-.031-.00792-.03955-.01009-.03192-.00814-.0365-.00932-.04284-.01091-.02625-.00668-.07184-.01827-.00085-.00021-.0708-.018-.01563-.004-.05829-.01475-.01471-.00373-.0614-.01551-.01049-.00265-.07129-.018h0q-.3414-.086-.68335-.17071a2.5796,2.5796,0,0,1-1.94281-.46923q-.83286-.196-1.6687-.38407l-.00947-.00214-.06451-.01449-.0108-.00242-.0633-.01419-.012-.0027-.14758-.033-.0091-.002-.06262-.014-.02283-.00508-.04669-.01037-.03039-.00676-.04126-.00914-.03174-.007-.03888-.0086-.033-.00729-.03992-.00881-.03216-.0071-.04535-.01-.05853-.01288-.03351-.00737-.03656-.008-.03577-.00785-.03552-.00778-.03583-.00784-.03534-.00773-.03583-.00783-.03637-.00794-.03809-.0083-.03113-.00679-.05517-.012-.02637-.00573-.06067-.01317-.02478-.00537-.04608-.01-.02893-.00626-.04505-.00973-.02673-.00577-.04809-.01037-.02253-.00485-.05719-.01231-.01465-.00316q-.15114-.03246-.30218-.06464l-.00006,0q-.65012-.13851-1.30213-.27213a2.50927,2.50927,0,0,0-.50463-.05142,1.54017,1.54017,0,0,1-1.445-.33656c-.42633-.08229-.84442-.16138-1.27185-.24054l-.03186-.0059-.03211-.006-.04278-.00789-.02606-.00482-.0539-.00993-.01581-.00291-.06823-.01255-.00312-.00056q-1.611-.29574-3.2326-.56179l-.00672-.0011-.06469-.0106-.0246-.004-.04468-.0073-.018-.00294a2.514,2.514,0,0,0-.40235-.03248,1.72777,1.72777,0,0,1-1.57141-.27769q-1.73337-.26217-3.47778-.49l-.00324-.00042-.072-.00939-.00738-.001-.06806-.00884-.00934-.00121-.06707-.00868-.00934-.0012-.2298-.02954-.002-.00026-.07215-.00921-.01031-.00131-.06616-.00841-.01044-.00133-.06488-.00822-.0119-.0015-.06934-.00875-.00513-.00065q-.15462-.01948-.30914-.03867l-.00079-.00009-.07623-.00945-.002-.00024q-.155-.01917-.31-.03807a2.52221,2.52221,0,0,0-.3056-.01861,1.90952,1.90952,0,0,1-1.6792-.21172q-.27035-.0298-.54083-.05877l-.00818-.00088-.0611-.00652-.02868-.00306-.04334-.00461-.03448-.00366-.03388-.00359-.0429-.00453-.024-.00254-.05084-.00535-.0083-.00088q-.70835-.07448-1.41822-.1432l-.01495-.00145-.05206-.005-.02063-.002-.048-.00461-.02655-.00255-.04413-.00423-.03326-.00317-.0365-.00348-.04694-.00447-.02557-.00242-.14929-.0141-.00934-.00087-.06885-.00645-.00537-.0005-.072-.00671-.00488-.00046q-1.01048-.094-2.02429-.17638-.10345-.0084-.20533-.00835a2.10993,2.10993,0,0,1-1.78979-.14231q-1.39784-.0975-2.80164-.1729l-.00281-.00015-.07281-.0039-.00623-.00033-.07153-.00379-.00568-.0003-.23107-.012-.009-.00046-.06451-.00331-.02142-.00109-.05317-.0027-.02594-.0013-.04589-.00231-.03193-.00161-.04132-.00206-.0343-.0017-.03827-.00189-.036-.00178-.03814-.00187-.03626-.00177-.03009-.00146-.0874-.00422-.02521-.00121-.041-.002-.03321-.00158-.04065-.00192-.03241-.00153-.04144-.002-.03174-.00148-.04168-.00194-.033-.00152-.03937-.00182-.036-.00165-.03778-.00173-.03729-.00169-.03638-.00165-.06415-.00288-.02515-.00112-.05755-.00257-.02112-.00093-.05444-.0024-.02222-.001-.05365-.00234-.02185-.00095-.05566-.0024-.01813-.00078-.06513-.00279-.00744-.00031-.2323-.00971q-.05256-.00216-.10462-.00216a2.30431,2.30431,0,0,1-1.88415-.06844c-.54-.01615-1.0741-.02961-1.6153-.0408l-.02008-.00042-.04535-.00093-.02917-.00058-.04029-.00081-.03637-.00072-.03553-.00069-.04064-.0008-.03156-.0006-.049-.00093-.02393-.00045-.0578-.00107-.01611-.0003-.23059-.00406-.0022,0-.07361-.00123-.009-.00015-.06689-.00109-.01166-.00019-.06525-.001-.0119-.00019-.06732-.001-.00806-.00013-.07416-.00111-.00146,0q-.15582-.0023-.31165-.00432l-.00244,0-.07324-.00093-.00916-.00011-.06433-.0008-.01678-.0002-.05939-.0007-.01758-.00021-.05713-.00066-.01995-.00022-.056-.00062-.02051-.00022-.05335-.00056-.023-.00024-.07159-.00072-.03949-.00038-.03375-.00033-.05048-.00048-.02008-.00018-.05823-.00052-.01147-.0001-.06366-.00054-.00507,0-.067-.00055h-.00183c-.38526-.003-.76691-.00483-1.15277-.00536q-.05961.0002-.11854.00315Q499.56537,327,499.5,327Zm-11.82513,5.4023q.08578,0,.17279-.00591c1.60632-.10967,3.238-.19767,4.84954-.26167a2.27426,2.27426,0,0,1,1.87116-.065c.02393,0,.048-.00034.07214-.001C496.25079,332.02311,497.88574,332,499.5,332q.06372,0,.12677-.00316.0628.00322.1264.00333c1.61408.00239,3.249.02788,4.85907.07583q.038.00113.07581.00113a2.26571,2.26571,0,0,1,1.8667.06781c1.61139.06634,3.24286.15678,4.849.26884.05926.00413.11792.00616.17645.00616a2.05206,2.05206,0,0,1,1.76154.14017c1.60723.13061,3.23388.28633,4.83459.46278a2.52475,2.52475,0,0,0,.277.01527,1.85593,1.85593,0,0,1,1.65075.20845c1.60035.19506,3.21924.41606,4.81159.65689a2.51966,2.51966,0,0,0,.377.02846,1.67822,1.67822,0,0,1,1.54279.27326c1.59039.25939,3.19842.54562,4.77954.85067a2.51206,2.51206,0,0,0,.47632.04573,1.51386,1.51386,0,0,1,1.42859.33321c1.57855.32361,3.17389.67477,4.74164,1.04384a2.50674,2.50674,0,0,0,.575.06708,1.36276,1.36276,0,0,1,1.31152.38853c1.56384.38733,3.14362.803,4.69525,1.2355a2.43808,2.43808,0,0,1,1.86817.53244c1.54638.45044,3.1076.92989,4.64026,1.425a2.4974,2.4974,0,0,0,.769.12174q.10876,0,.21643-.00946a2.49272,2.49272,0,0,0,.85925.49556c1.52686.51295,3.06745,1.05555,4.5791,1.61273a2.49461,2.49461,0,0,0,.86438.155c.03839,0,.07679-.0009.11493-.00267a2.49257,2.49257,0,0,0,.83783.52952c1.50489.57468,3.02246,1.17951,4.51044,1.79773a2.49228,2.49228,0,0,0,.95819.192l.01483,0a2.49246,2.49246,0,0,0,.8161.56363c1.47992.6351,2.97138,1.30088,4.43286,1.97883a2.43823,2.43823,0,0,1,1.75757.82778c1.45313.69467,2.91657,1.42044,4.34955,2.15722a2.43832,2.43832,0,0,1,1.72192.89783c1.424.753,2.85706,1.53751,4.25934,2.33167a2.43871,2.43871,0,0,1,1.68427.96678c1.39233.80993,2.79254,1.65167,4.16162,2.50177a2.43875,2.43875,0,0,1,1.64447,1.03433c1.35864.86551,2.72375,1.763,4.05743,2.66756a2.43891,2.43891,0,0,1,1.60151,1.09967c1.32281.91961,2.65081,1.87138,3.94714,2.829a2.43894,2.43894,0,0,1,1.55572,1.163c1.28492.97217,2.57373,1.97661,3.83057,2.9855a2.43886,2.43886,0,0,1,1.508,1.22472c1.24481,1.02295,2.49224,2.07834,3.70752,3.13678a2.43934,2.43934,0,0,1,1.45782,1.28433c1.20288,1.07218,2.407,2.17673,3.57886,3.28307a2.4394,2.4394,0,0,1,1.405,1.34166c1.15905,1.11961,2.31793,2.2716,3.44439,3.42395a2.43883,2.43883,0,0,1,1.35022,1.39694c1.11322,1.16522,2.225,2.36272,3.30439,3.55922a2.43913,2.43913,0,0,1,1.293,1.45c1.06574,1.20894,2.12861,2.4501,3.15906,3.68889a2.43884,2.43884,0,0,1,1.23371,1.50044c1.01635,1.25078,2.02844,2.53349,3.0083,3.81255a2.439,2.439,0,0,1,1.17248,1.54889c.96527,1.29055,1.925,2.61277,2.8526,3.93a2.43935,2.43935,0,0,1,1.10932,1.59489c.91259,1.32834,1.81829,2.68807,2.692,4.04151a2.439,2.439,0,0,1,1.04395,1.63783c.85834,1.364,1.70856,2.75917,2.527,4.14678a2.43864,2.43864,0,0,1,.97686,1.67839c.80262,1.39738,1.59571,2.82556,2.3573,4.24488a2.43885,2.43885,0,0,1,.90857,1.71712c.7453,1.4285,1.47992,2.88739,2.18329,4.33621a2.43838,2.43838,0,0,1,.83826,1.75212c.687,1.45766,1.36188,2.94533,2.0061,4.42173a2.43867,2.43867,0,0,1,.766,1.78366c.6272,1.48411,1.24115,2.99777,1.82483,4.499a2.43785,2.43785,0,0,1,.6933,1.8141c.56628,1.508,1.11816,3.04516,1.64032,4.56872a2.43791,2.43791,0,0,1,.6192,1.8415c.50452,1.52972.99347,3.08812,1.45331,4.63183a2.43842,2.43842,0,0,1,.5434,1.86356c.44189,1.54905.86712,3.12622,1.264,4.68777a2.43824,2.43824,0,0,1,.46729,1.88451c.37848,1.56532.73926,3.15828,1.07239,4.73454a2.43839,2.43839,0,0,1,.3908,1.904c.31458,1.57917.61048,3.18546.8794,4.77411a2.43868,2.43868,0,0,1,.313,1.916c.25049,1.591.48126,3.20852.686,4.80761a2.43893,2.43893,0,0,1,.23548,1.92762c.186,1.59939.35144,3.22473.49163,4.8309a2.43913,2.43913,0,0,1,.15808,1.938c.12165,1.60571.22181,3.23684.29773,4.848a2.43949,2.43949,0,0,1,.08033,1.93957c.05755,1.6095.09271,3.24378.10467,4.85743a2.44,2.44,0,0,1,.0033,1.94766c-.00635,1.614-.03589,3.24863-.08783,4.85846a2.43974,2.43974,0,0,1-.07367,1.94134c-.07025,1.61106-.1648,3.2421-.28076,4.84781a2.439,2.439,0,0,1-.15131,1.93872c-.13458,1.60685-.29437,3.23291-.47479,4.83307a2.43867,2.43867,0,0,1-.22852,1.92716c-.19909,1.6-.42425,3.2185-.66913,4.81051a2.43809,2.43809,0,0,1-.30639,1.91822c-.26337,1.58963-.55359,3.19683-.86261,4.77706a2.43821,2.43821,0,0,1-.38391,1.90473c-.32752,1.57761-.68274,3.17193-1.05573,4.73871a2.43818,2.43818,0,0,1-.46033,1.88522c-.39135,1.56305-.81109,3.14188-1.24749,4.69263a2.43783,2.43783,0,0,1-.537,1.86627c-.45429,1.54517-.93768,3.105-1.43671,4.63638a2.43791,2.43791,0,0,1-.61267,1.84372c-.51684,1.52551-1.06329,3.06473-1.62427,4.57483a2.43774,2.43774,0,0,1-.68658,1.81589c-.57843,1.50339-1.187,3.01929-1.809,4.50568a2.43819,2.43819,0,0,1-.75989,1.78689c-.63885,1.47839-1.30847,2.96817-1.99011,4.428a2.43841,2.43841,0,0,1-.83215,1.75552c-.69837,1.45139-1.4278,2.91288-2.16816,4.34406a2.43833,2.43833,0,0,1-.90228,1.71988c-.75659,1.42206-1.54468,2.85306-2.34235,4.25332a2.43837,2.43837,0,0,1-.97088,1.68161c-.81354,1.39045-1.65882,2.78861-2.51239,4.15567a2.43829,2.43829,0,0,1-1.03833,1.64173c-.86884,1.35644-1.76978,2.71933-2.67768,4.05072a2.43854,2.43854,0,0,1-1.10382,1.59884c-.92285,1.3205-1.878,2.64615-2.83874,3.94a2.43847,2.43847,0,0,1-1.16693,1.55288c-.97534,1.28251-1.983,2.56879-2.995,3.82312a2.4389,2.4389,0,0,1-1.22845,1.5048c-1.02612,1.24237-2.0846,2.48715-3.14606,3.69989a2.43908,2.43908,0,0,1-1.288,1.45449c-1.07514,1.20023-2.18274,2.40162-3.29193,3.57071a2.43942,2.43942,0,0,1-1.34522,1.40168c-1.1225,1.15622-2.27734,2.31228-3.43249,3.43588a2.43887,2.43887,0,0,1-1.40033,1.34662c-1.168,1.11038-2.36823,2.21917-3.56739,3.29556a2.43923,2.43923,0,0,1-1.45318,1.28937c-1.21167,1.06274-2.45539,2.12249-3.69672,3.14984a2.43892,2.43892,0,0,1-1.50354,1.22989c-1.25336,1.01327-2.53857,2.02221-3.82007,2.9989a2.43908,2.43908,0,0,1-1.55182,1.16855c-1.2929.96206-2.61755,1.91849-3.93713,2.84271a2.43888,2.43888,0,0,1-1.59778,1.10541c-1.3305.90927-2.69244,1.81155-4.048,2.68176a2.43862,2.43862,0,0,1-1.64057,1.03995c-1.36621.855-2.76355,1.70172-4.15319,2.5166a2.43816,2.43816,0,0,1-1.68067.97256c-1.39941.79911-2.82959,1.58863-4.25085,2.34668a2.43864,2.43864,0,0,1-1.71912.90412c-1.43042.7417-2.89117,1.47265-4.3418,2.17242a2.43818,2.43818,0,0,1-1.75457.834c-1.45923.68316-2.94837,1.35427-4.42621,1.99472a2.49034,2.49034,0,0,0-.81385.56622h-.00573a2.493,2.493,0,0,0-.96637.19537c-1.48572.62351-3.001,1.23368-4.50379,1.81363a2.492,2.492,0,0,0-.83618.53275q-.0531-.0023-.10657-.00229a2.49467,2.49467,0,0,0-.87262.15805c-1.50952.5625-3.04809,1.11047-4.573,1.62881a2.49248,2.49248,0,0,0-.85779.49894q-.10336-.0087-.20807-.00873a2.498,2.498,0,0,0-.77747.12448c-1.53076.50055-3.09015.9855-4.63482,1.44137a1.2137,1.2137,0,0,1-1.18439.444,2.50264,2.50264,0,0,0-.68115.09485c-1.55017.438-3.1286.85926-4.69123,1.25217a1.35014,1.35014,0,0,1-1.30139.39322,2.50924,2.50924,0,0,0-.58356.06915c-1.5664.37457-3.16033.73133-4.73754,1.06052a1.5009,1.5009,0,0,1-1.41968.3385,2.51335,2.51335,0,0,0-.48505.04742c-1.57983.31061-3.18677.60245-4.776.8674a1.66284,1.66284,0,0,1-1.53186.27851,2.52641,2.52641,0,0,0-.38574.02981c-1.59168.24646-3.2099.47324-4.80969.67389a1.83988,1.83988,0,0,1-1.64148.2143,2.5356,2.5356,0,0,0-.28577.01626c-1.6.182-3.22583.34339-4.83246.47968a2.03476,2.03476,0,0,1-1.75366.14642c-.06128,0-.12323.00223-.1853.00681-1.60559.11758-3.23651.21371-4.84748.28561a2.24632,2.24632,0,0,1-1.8562.07419c-.028,0-.05639.00046-.08459.0014-1.60974.0535-3.24433.08472-4.85816.09262a2.44,2.44,0,0,1-1.94781-.0014c-1.61371-.01031-3.24811-.04388-4.85773-.09982-.02954-.001-.0589-.00153-.08826-.00153a2.238,2.238,0,0,1-1.8518-.07687c-1.611-.07431-3.242-.17282-4.8476-.29288q-.09512-.00709-.189-.00708a2.02683,2.02683,0,0,1-1.74964-.149c-1.60632-.13861-3.23187-.30237-4.83148-.48681a2.52215,2.52215,0,0,0-.28943-.0167,1.83326,1.83326,0,0,1-1.63812-.21676c-1.5993-.2031-3.21716-.43225-4.80841-.68109a2.51108,2.51108,0,0,0-.38947-.0304,1.65636,1.65636,0,0,1-1.52716-.28073c-1.5888-.26734-3.19519-.56162-4.77453-.87454a2.43831,2.43831,0,0,1-1.90454-.38889c-1.57672-.33151-3.17011-.69073-4.73578-1.06763a2.5042,2.5042,0,0,0-.58722-.07,1.345,1.345,0,0,1-1.29755-.39527c-1.56195-.39526-3.13958-.81894-4.68915-1.25927a2.43791,2.43791,0,0,1-1.86431-.54157c-1.54413-.45822-3.10285-.94556-4.63294-1.44842a2.49657,2.49657,0,0,0-.78107-.12568q-.10272,0-.20428.00843a2.49255,2.49255,0,0,0-.857-.50016c-1.5241-.52059-3.06188-1.071-4.57049-1.63571a2.4931,2.4931,0,0,0-.87616-.15936q-.05154,0-.103.00214a2.49191,2.49191,0,0,0-.83551-.53412c-1.50183-.58222-3.01617-1.19467-4.50091-1.82035a2.49236,2.49236,0,0,0-.96979-.19686h-.00183a2.49268,2.49268,0,0,0-.81293-.56739c-1.477-.64267-2.96527-1.31607-4.42352-2.00152a2.43822,2.43822,0,0,1-1.75318-.83649c-1.44952-.70193-2.90917-1.43506-4.33844-2.17895a2.43855,2.43855,0,0,1-1.71789-.90677c-1.42011-.76017-2.84912-1.55179-4.24732-2.35294a2.43867,2.43867,0,0,1-1.67929-.97516c-1.38845-.817-2.78451-1.66583-4.14938-2.52286a2.43863,2.43863,0,0,1-1.63895-1.04232c-1.35427-.87229-2.7149-1.77662-4.04406-2.68784a2.43872,2.43872,0,0,1-1.5961-1.10782c-1.31824-.92618-2.64145-1.88455-3.933-2.84857a2.439,2.439,0,0,1-1.55-1.17093c-1.28-.97851-2.56379-1.98941-3.81556-3.00452a2.43893,2.43893,0,0,1-1.50168-1.23208c-1.23983-1.02924-2.48205-2.09085-3.6921-3.1554a2.43918,2.43918,0,0,1-1.45124-1.29156c-1.19754-1.07813-2.39614-2.18866-3.5625-3.30084a2.439,2.439,0,0,1-1.39831-1.34873c-1.15344-1.12533-2.30661-2.28305-3.42734-3.441a2.43913,2.43913,0,0,1-1.34317-1.40368c-1.10745-1.17072-2.21323-2.37378-3.28662-3.5756a2.43888,2.43888,0,0,1-1.28577-1.45645c-1.05966-1.21423-2.11633-2.4606-3.14056-3.70443a2.439,2.439,0,0,1-1.22623-1.50675c-1.0101-1.25583-2.01587-2.54361-2.98926-3.82754a2.43894,2.43894,0,0,1-1.16461-1.55457c-.95889-1.29538-1.912-2.62244-2.83294-3.94431a2.439,2.439,0,0,1-1.10129-1.6004c-.906-1.33276-1.80484-2.697-2.67166-4.05472a2.43887,2.43887,0,0,1-1.036-1.6434c-.8515-1.36825-1.69467-2.76761-2.50605-4.15921a2.43862,2.43862,0,0,1-.96838-1.68323c-.79562-1.40142-1.58157-2.83371-2.336-4.25689a2.43871,2.43871,0,0,1-.89969-1.7211c-.73816-1.43228-1.46542-2.895-2.16156-4.34732a2.43819,2.43819,0,0,1-.82959-1.7569c-.67944-1.46079-1.34674-2.95151-1.98333-4.43079a2.438,2.438,0,0,1-.75733-1.78817c-.61975-1.48737-1.22613-3.00428-1.80227-4.50855a2.43814,2.43814,0,0,1-.68375-1.81665c-.55872-1.511-1.10288-3.05106-1.61737-4.57739a2.43818,2.43818,0,0,1-.6098-1.84433c-.49671-1.53208-.97773-3.09274-1.42975-4.63861a2.43851,2.43851,0,0,1-.53424-1.86746c-.43412-1.5514-.85144-3.13083-1.24039-4.69443a2.43834,2.43834,0,0,1-.45743-1.88574c-.37066-1.56739-.72345-3.16233-1.04861-4.74054a2.43809,2.43809,0,0,1-.381-1.90479c-.30668-1.58078-.59446-3.18851-.85544-4.77856a2.43827,2.43827,0,0,1-.30362-1.9191c-.2425-1.59241-.46521-3.21124-.6619-4.81156a2.43894,2.43894,0,0,1-.22558-1.92712c-.17807-1.60055-.33542-3.22693-.46762-4.834a2.43929,2.43929,0,0,1-.14835-1.9383c-.11365-1.606-.20572-3.23727-.27365-4.84854a2.43984,2.43984,0,0,1-.07083-1.94208c-.04956-1.61-.07669-3.24472-.08069-4.85876a2.44032,2.44032,0,0,1,.00622-1.94739c.01429-1.61362.05191-3.24771.11179-4.85705a2.43973,2.43973,0,0,1,.08316-1.93885c.07834-1.61139.18094-3.24264.305-4.84854a2.43923,2.43923,0,0,1,.16089-1.93728c.14264-1.60584.31046-3.23084.4989-4.8299a2.43877,2.43877,0,0,1,.23841-1.92783c.207-1.59872.44027-3.21582.69308-4.80633a2.43825,2.43825,0,0,1,.31586-1.915c.27139-1.5885.5697-3.19458.88678-4.7735a2.438,2.438,0,0,1,.39355-1.90295c.33542-1.57572.69867-3.16806,1.0795-4.73279a2.438,2.438,0,0,1,.47022-1.88422c.39917-1.56083.82678-3.13733,1.271-4.68567a2.43807,2.43807,0,0,1,.54611-1.86244c.46222-1.54317.95356-3.101,1.46045-4.63011a2.43765,2.43765,0,0,1,.62189-1.84027c.52444-1.52274,1.07861-3.059,1.64716-4.56618a2.43809,2.43809,0,0,1,.6961-1.81332c.586-1.50029,1.20224-3.013,1.83164-4.49613a2.43824,2.43824,0,0,1,.7687-1.78254c.6464-1.47545,1.32361-2.96212,2.01279-4.41878a2.43815,2.43815,0,0,1,.84073-1.75067c.7056-1.44777,1.44238-2.90555,2.18982-4.33289a2.43829,2.43829,0,0,1,.91128-1.71588c.76368-1.41817,1.5589-2.84517,2.36356-4.24135a2.43857,2.43857,0,0,1,.97949-1.67705c.82044-1.38633,1.67273-2.78022,2.53317-4.14294a2.43859,2.43859,0,0,1,1.04633-1.63611c.87573-1.35222,1.78351-2.71066,2.69812-4.03761a2.4386,2.4386,0,0,1,1.11173-1.59322c.92944-1.31584,1.89117-2.63667,2.85836-3.92573a2.4388,2.4388,0,0,1,1.17484-1.54721c.98172-1.27762,1.99579-2.55878,3.014-3.80806a2.43884,2.43884,0,0,1,1.236-1.49868c1.03225-1.23721,2.097-2.47677,3.16455-3.68415a2.43874,2.43874,0,0,1,1.2951-1.448c1.08112-1.19494,2.19468-2.39077,3.30973-3.55433a2.43895,2.43895,0,0,1,1.35217-1.39495c1.12826-1.15066,2.28888-2.30088,3.44961-3.41877a2.43881,2.43881,0,0,1,1.40693-1.3396c1.17352-1.10457,2.3793-2.20734,3.58383-3.27773a2.439,2.439,0,0,1,1.45962-1.28216c1.21689-1.05661,2.46588-2.11013,3.71228-3.13123a2.43887,2.43887,0,0,1,1.50977-1.2225c1.25839-1.007,2.54867-2.00955,3.83505-2.97978a2.43891,2.43891,0,0,1,1.55741-1.16066c1.29776-.95562,2.62722-1.90545,3.95144-2.82306a2.43863,2.43863,0,0,1,1.603-1.09722c1.335-.90262,2.70154-1.79806,4.06143-2.6615a2.43865,2.43865,0,0,1,1.64618-1.03195c1.37027-.848,2.77167-1.68761,4.16519-2.49539a2.43868,2.43868,0,0,1,1.68585-.96433c1.40345-.79211,2.83771-1.57444,4.26282-2.32533a2.4386,2.4386,0,0,1,1.72308-.89517c1.43415-.7346,2.89875-1.45822,4.35291-2.15073a2.4382,2.4382,0,0,1,1.75867-.825c1.46246-.67578,2.95489-1.33933,4.43579-1.97222a2.49193,2.49193,0,0,0,.817-.56248l.01874.00007a2.49327,2.49327,0,0,0,.95477-.19053c1.48884-.61595,3.00715-1.21845,4.51288-1.79083a2.493,2.493,0,0,0,.83869-.52831q.05924.00284.11877.00284a2.49611,2.49611,0,0,0,.8609-.15366c1.51245-.55488,3.0539-1.09521,4.58167-1.60588a2.49255,2.49255,0,0,0,.8598-.49412q.10922.00972.21991.00976a2.49859,2.49859,0,0,0,.76556-.12059c1.53345-.49283,3.0954-.96994,4.64246-1.41806a1.23064,1.23064,0,0,1,1.20038-.43831,2.50373,2.50373,0,0,0,.669-.0914c1.55207-.43011,3.13227-.84334,4.69654-1.22822a1.3682,1.3682,0,0,1,1.31622-.38669,2.50813,2.50813,0,0,0,.57129-.06621c1.56842-.36671,3.16437-.7155,4.74347-1.03671a1.5196,1.5196,0,0,1,1.43237-.331,2.514,2.514,0,0,0,.47266-.045c1.58154-.30272,3.19012-.5865,4.78094-.84349a1.68472,1.68472,0,0,1,1.54749-.271,2.52114,2.52114,0,0,0,.37323-.02788c1.59247-.23845,3.21136-.457,4.81171-.64961a1.86316,1.86316,0,0,1,1.65533-.206,2.5304,2.5304,0,0,0,.27331-.01485c1.601-.17412,3.228-.3274,4.83552-.45562a2.05955,2.05955,0,0,1,1.76477-.13753Z" transform="translate(-326 -26.42383)"/><text class="cls-3" transform="translate(32.80908 554.63574) scale(0.93491 1)">a</text></svg>