<svg xmlns="http://www.w3.org/2000/svg" xmlns:xlink="http://www.w3.org/1999/xlink" width="137.374" height="141.094" viewBox="0 0 137.374 141.094">
  <metadata><?xpacket begin="﻿" id="W5M0MpCehiHzreSzNTczkc9d"?>
<x:xmpmeta xmlns:x="adobe:ns:meta/" x:xmptk="Adobe XMP Core 5.6-c138 79.159824, 2016/09/14-01:09:01        ">
   <rdf:RDF xmlns:rdf="http://www.w3.org/1999/02/22-rdf-syntax-ns#">
      <rdf:Description rdf:about=""/>
   </rdf:RDF>
</x:xmpmeta>
                                                                                                    
                                                                                                    
                                                                                                    
                                                                                                    
                                                                                                    
                                                                                                    
                                                                                                    
                                                                                                    
                                                                                                    
                                                                                                    
                                                                                                    
                                                                                                    
                                                                                                    
                                                                                                    
                                                                                                    
                                                                                                    
                                                                                                    
                                                                                                    
                                                                                                    
                                                                                                    
                           
<?xpacket end="w"?></metadata>
<defs>
    <style>
      .cls-1 {
        fill-rule: evenodd;
        filter: url(#filter);
      }
    </style>
    <filter id="filter" x="448.438" y="344.844" width="137.374" height="141.094" filterUnits="userSpaceOnUse">
      <feFlood result="flood" flood-color="#fda595"/>
      <feComposite result="composite" operator="in" in2="SourceGraphic"/>
      <feBlend result="blend" in2="SourceGraphic"/>
    </filter>
  </defs>
  <path id="BUILD_ICON" data-name="BUILD ICON" class="cls-1" d="M556.214,366.434a3.407,3.407,0,0,0,3.407-3.406V352.282a7.457,7.457,0,0,0-7.448-7.448H480.088a3.41,3.41,0,0,0-2.41,1l-28.227,28.213a3.4,3.4,0,0,0-1,2.408V478.484a7.459,7.459,0,0,0,7.452,7.449h96.268a7.457,7.457,0,0,0,7.448-7.449v-52a3.408,3.408,0,0,0-6.815,0v52a0.636,0.636,0,0,1-.633.637H455.905a0.638,0.638,0,0,1-.637-0.637V379.859h20.779a7.456,7.456,0,0,0,7.449-7.446V351.645h68.677a0.636,0.636,0,0,1,.633.637v10.746A3.407,3.407,0,0,0,556.214,366.434Zm-79.533,5.979a0.635,0.635,0,0,1-.634.634H460.088l16.593-16.584v15.95ZM582.443,372.5l-4.009-4.007a11.548,11.548,0,0,0-16.306,0L530.3,400.3H475.1a3.406,3.406,0,1,0,0,6.811h48.386l-20.508,20.5H475.1a3.406,3.406,0,1,0,0,6.812h21.063l-0.055.055a3.4,3.4,0,0,0-.873,1.5l-5.263,18.945H475.1a3.406,3.406,0,1,0,0,6.812h17.462s0.747-.085.857-0.113l21.506-5.965a3.414,3.414,0,0,0,1.5-.873L582.444,388.8A11.533,11.533,0,0,0,582.443,372.5Zm-84.984,80.932,2.781-10.011,7.235,7.231Zm16.556-5.876-10.676-10.671,54.5-54.468,10.677,10.671Zm63.609-63.576-4.293,4.291L562.654,377.6l4.294-4.291a4.72,4.72,0,0,1,6.667,0l4.009,4.007A4.716,4.716,0,0,1,577.624,383.982Z" transform="translate(-448.438 -344.844)"/>
</svg>
