<svg xmlns="http://www.w3.org/2000/svg" xmlns:xlink="http://www.w3.org/1999/xlink" width="112.812" height="142.625" viewBox="0 0 112.812 142.625">
  <metadata><?xpacket begin="﻿" id="W5M0MpCehiHzreSzNTczkc9d"?>
<x:xmpmeta xmlns:x="adobe:ns:meta/" x:xmptk="Adobe XMP Core 5.6-c138 79.159824, 2016/09/14-01:09:01        ">
   <rdf:RDF xmlns:rdf="http://www.w3.org/1999/02/22-rdf-syntax-ns#">
      <rdf:Description rdf:about=""/>
   </rdf:RDF>
</x:xmpmeta>
                                                                                                    
                                                                                                    
                                                                                                    
                                                                                                    
                                                                                                    
                                                                                                    
                                                                                                    
                                                                                                    
                                                                                                    
                                                                                                    
                                                                                                    
                                                                                                    
                                                                                                    
                                                                                                    
                                                                                                    
                                                                                                    
                                                                                                    
                                                                                                    
                                                                                                    
                                                                                                    
                           
<?xpacket end="w"?></metadata>
<defs>
    <style>
      .cls-1 {
        fill-rule: evenodd;
        filter: url(#filter);
      }
    </style>
    <filter id="filter" x="121" y="344.594" width="112.812" height="142.625" filterUnits="userSpaceOnUse">
      <feFlood result="flood" flood-color="#fda595"/>
      <feComposite result="composite" operator="in" in2="SourceGraphic"/>
      <feBlend result="blend" in2="SourceGraphic"/>
    </filter>
  </defs>
  <path id="CREATE_ICON" data-name="CREATE ICON" class="cls-1" d="M201.419,381.023a34.448,34.448,0,0,0-25.411-9.666,35.005,35.005,0,0,0-33.26,34.559,34.612,34.612,0,0,0,8.024,22.273,50.292,50.292,0,0,1,11.63,32.084s-0.785,5.357,3.023,5.357h23.957c3.9,0,3.024-5.357,3.024-5.357,0-11.413,4.187-22.709,12.124-32.666A34.693,34.693,0,0,0,201.419,381.023Zm-1.628,42.8c-8.635,10.83-13.258,23.175-13.432,35.752h-17.91a56.425,56.425,0,0,0-13.025-35.257A28.607,28.607,0,1,1,199.791,423.822Zm17.5-62.684a3,3,0,0,0-4.274,0l-7.385,7.4a3.024,3.024,0,0,0,4.274,4.28l7.385-7.395A3.008,3.008,0,0,0,217.294,361.138ZM189.5,469.764h-24.19a3.028,3.028,0,0,0,0,6.056H189.5A3.028,3.028,0,0,0,189.5,469.764Zm-4.565,11.413H169.9a3.028,3.028,0,0,0,0,6.056h15.031A3.028,3.028,0,0,0,184.934,481.177ZM177.4,361.109a3.024,3.024,0,0,0,3.024-3.028V347.629a3.024,3.024,0,1,0-6.048,0v10.452A3.005,3.005,0,0,0,177.4,361.109Zm-28.231,11.733a3.008,3.008,0,0,0,0-4.28l-7.385-7.4a3,3,0,0,0-4.274,0,3.034,3.034,0,0,0,0,4.28l7.385,7.395A3.05,3.05,0,0,0,149.173,372.842Zm81.611,25.213H220.346a3.028,3.028,0,0,0,0,6.056h10.438A3.028,3.028,0,0,0,230.784,398.055Zm-96.323,0H124.024a3.028,3.028,0,0,0,0,6.056h10.437A3.028,3.028,0,0,0,134.461,398.055Z" transform="translate(-121 -344.594)"/>
</svg>
