<svg xmlns="http://www.w3.org/2000/svg" xmlns:xlink="http://www.w3.org/1999/xlink" width="46.085" height="44.999" viewBox="0 0 45.062 44">
  <metadata><?xpacket begin="﻿" id="W5M0MpCehiHzreSzNTczkc9d"?>
<x:xmpmeta xmlns:x="adobe:ns:meta/" x:xmptk="Adobe XMP Core 5.6-c138 79.159824, 2016/09/14-01:09:01        ">
   <rdf:RDF xmlns:rdf="http://www.w3.org/1999/02/22-rdf-syntax-ns#">
      <rdf:Description rdf:about=""/>
   </rdf:RDF>
</x:xmpmeta>
                                                                                                    
                                                                                                    
                                                                                                    
                                                                                                    
                                                                                                    
                                                                                                    
                                                                                                    
                                                                                                    
                                                                                                    
                                                                                                    
                                                                                                    
                                                                                                    
                                                                                                    
                                                                                                    
                                                                                                    
                                                                                                    
                                                                                                    
                                                                                                    
                                                                                                    
                                                                                                    
                           
<?xpacket end="w"?></metadata>
<defs>
    <style>
      .cls-1 {
        fill-rule: evenodd;
        filter: url(#filter);
      }
    </style>
    <filter id="filter" x="660.969" y="765" width="45.062" height="44" filterUnits="userSpaceOnUse">
      <feFlood result="flood" flood-color="#fda595"/>
      <feComposite result="composite" operator="in" in2="SourceGraphic"/>
      <feBlend result="blend" in2="SourceGraphic"/>
    </filter>
  </defs>
  <path id="Down_Arrow" data-name="Down Arrow" class="cls-1" d="M682.461,791.055a1.413,1.413,0,0,0,2.077,0l21.042-21.23a1.443,1.443,0,0,0,0-2.1l-2.257-2.278a1.413,1.413,0,0,0-2.077,0l-17.747,17.9-17.746-17.9a1.413,1.413,0,0,0-2.077,0l-2.257,2.278a1.441,1.441,0,0,0,0,2.1Zm20.862-8.11a1.413,1.413,0,0,0-2.077,0l-17.747,17.9-17.746-17.9a1.411,1.411,0,0,0-2.077,0l-2.257,2.278a1.441,1.441,0,0,0,0,2.1l21.042,21.23a1.413,1.413,0,0,0,2.077,0l21.042-21.23a1.442,1.442,0,0,0,0-2.095Z" transform="translate(-660.969 -765)"/>
</svg>
