<svg xmlns="http://www.w3.org/2000/svg" xmlns:xlink="http://www.w3.org/1999/xlink" width="173.44" height="144.938" viewBox="0 0 173.44 144.938">
  <metadata><?xpacket begin="﻿" id="W5M0MpCehiHzreSzNTczkc9d"?>
<x:xmpmeta xmlns:x="adobe:ns:meta/" x:xmptk="Adobe XMP Core 5.6-c138 79.159824, 2016/09/14-01:09:01        ">
   <rdf:RDF xmlns:rdf="http://www.w3.org/1999/02/22-rdf-syntax-ns#">
      <rdf:Description rdf:about=""/>
   </rdf:RDF>
</x:xmpmeta>
                                                                                                    
                                                                                                    
                                                                                                    
                                                                                                    
                                                                                                    
                                                                                                    
                                                                                                    
                                                                                                    
                                                                                                    
                                                                                                    
                                                                                                    
                                                                                                    
                                                                                                    
                                                                                                    
                                                                                                    
                                                                                                    
                                                                                                    
                                                                                                    
                                                                                                    
                                                                                                    
                           
<?xpacket end="w"?></metadata>
<defs>
    <style>
      .cls-1 {
        fill-rule: evenodd;
        filter: url(#filter);
      }
    </style>
    <filter id="filter" x="1108.56" y="343" width="173.44" height="144.938" filterUnits="userSpaceOnUse">
      <feFlood result="flood" flood-color="#fda595"/>
      <feComposite result="composite" operator="in" in2="SourceGraphic"/>
      <feBlend result="blend" in2="SourceGraphic"/>
    </filter>
  </defs>
  <path id="OPTIMIZE_ICON" data-name="OPTIMIZE ICON" class="cls-1" d="M1252.7,343a23.694,23.694,0,1,0,0,47.388,23.861,23.861,0,0,0,23.89-23.775A23.616,23.616,0,0,0,1252.7,343Zm0,42.177a18.484,18.484,0,1,1,18.66-18.4A18.6,18.6,0,0,1,1252.7,385.177Zm7.53-14.819a4.094,4.094,0,0,0-.49-1.3,4.162,4.162,0,0,0-.65-1.14c-0.33-.325-0.5-0.651-0.82-0.977a2.986,2.986,0,0,0-1.15-.814,4.221,4.221,0,0,0-1.14-.651c-0.49-.163-0.82-0.489-1.31-0.652a11.6,11.6,0,0,1-1.31-.488,1.293,1.293,0,0,1-.66-0.326c-0.16-.163-0.49-0.163-0.65-0.326s-0.49-.162-0.65-0.325-0.33-.326-0.5-0.489a0.852,0.852,0,0,1-.32-0.651,0.949,0.949,0,0,1-.17-0.652V360.75c0-.163.17-0.488,0.17-0.651,0.16-.163.16-0.489,0.32-0.652s0.33-.325.5-0.488a1.238,1.238,0,0,1,.81-0.326,1.486,1.486,0,0,1,.82-0.163h0.98a1.486,1.486,0,0,1,.82.163,6.879,6.879,0,0,1,.82.163c0.16,0,.49.163,0.65,0.163a3.906,3.906,0,0,1,.66.163l0.82,0.325,0.16-.977,0.33-2.605v-0.651l-0.66-.163c-0.16,0-.49-0.163-0.65-0.163a3.906,3.906,0,0,0-.66-0.163,7.069,7.069,0,0,0-.81-0.163c-0.33,0-.49-0.163-0.82-0.163h-0.17v-3.094h-3.92v3.257h-0.17a5.808,5.808,0,0,0-1.47.652,2.858,2.858,0,0,0-1.14.814,7.06,7.06,0,0,0-.99,1.14,3.3,3.3,0,0,0-.65,1.3c-0.16.489-.33,0.977-0.49,1.466a5.635,5.635,0,0,0-.16,1.628,3.644,3.644,0,0,0,.16,1.3,4.085,4.085,0,0,0,.49,1.3c0.16,0.326.49,0.814,0.65,1.14,0.33,0.326.5,0.651,0.82,0.977a2.976,2.976,0,0,0,1.15.814,4.226,4.226,0,0,0,1.14.652,9.854,9.854,0,0,1,1.31.651,11.8,11.8,0,0,1,1.31.488,1.293,1.293,0,0,1,.66.326c0.16,0.163.49,0.163,0.65,0.326a0.866,0.866,0,0,0,.49.326c0.16,0.162.33,0.325,0.49,0.488a2.128,2.128,0,0,1,.33.652,7.105,7.105,0,0,1,.16.814v0.814a1.242,1.242,0,0,1-.32.651c-0.17.163-.33,0.326-0.5,0.489a2.143,2.143,0,0,1-.65.488c-0.16.163-.49,0.163-0.65,0.326a7.834,7.834,0,0,1-.82.163h-2.13a7.327,7.327,0,0,1-.82-0.163,2.371,2.371,0,0,1-.98-0.326c-0.33-.163-0.65-0.163-0.98-0.325-0.16,0-.33-0.163-0.49-0.163s-0.33-.163-0.49-0.163l-0.98-.489-0.17,1.14-0.32,2.932v0.488l0.49,0.163a2.19,2.19,0,0,1,1.47.163,3.069,3.069,0,0,0,1.14.326c0.33,0.162.82,0.162,1.31,0.325a3.621,3.621,0,0,0,1.31.163h0.33v3.257H1255v-3.42h0.16a11.333,11.333,0,0,0,2.78-1.465,7.127,7.127,0,0,0,.98-1.14,9.132,9.132,0,0,0,.82-1.3c0.16-.489.33-0.977,0.49-1.466a5.1,5.1,0,0,0,.16-1.628A3.647,3.647,0,0,0,1260.23,370.358Zm-18.98,23.124a2.791,2.791,0,0,0-3.76-.488L1210.98,414l-34.19-14.168a2.607,2.607,0,0,0-2.45.326l-36.65,26.055a2.6,2.6,0,0,0-.66,3.583,2.4,2.4,0,0,0,2.13,1.14,2.638,2.638,0,0,0,1.47-.489l35.51-25.241,34.35,14.168a2.961,2.961,0,0,0,2.62-.326l27.65-21.821A2.758,2.758,0,0,0,1241.25,393.482Zm38.29,89.24h-12.11v-75.4a2.581,2.581,0,0,0-2.62-2.605h-24.05a2.581,2.581,0,0,0-2.62,2.605v75.4h-8.83V433.379a2.582,2.582,0,0,0-2.62-2.605h-24.21a2.575,2.575,0,0,0-2.62,2.605v49.343h-8.84V429.471a2.573,2.573,0,0,0-2.61-2.605h-24.05a2.575,2.575,0,0,0-2.62,2.605v53.251h-8.84V444.778a2.573,2.573,0,0,0-2.61-2.605h-24.22a2.573,2.573,0,0,0-2.61,2.605v37.944h-12.28a2.606,2.606,0,1,0,0,5.211h168.19a2.576,2.576,0,0,0,2.62-2.606A2.356,2.356,0,0,0,1279.54,482.722Zm-132.03,0h-18.82V447.384h18.82v35.338Zm38.28,0h-18.82V432.077h18.82v50.645Zm38.12,0H1205.1V435.985h18.81v46.737Zm38.28,0h-18.81V409.93h18.81v72.792Z" transform="translate(-1108.56 -343)"/>
</svg>
