<svg xmlns="http://www.w3.org/2000/svg" xmlns:xlink="http://www.w3.org/1999/xlink" width="121.219" height="143.406" viewBox="0 0 121.219 143.406">
  <metadata><?xpacket begin="﻿" id="W5M0MpCehiHzreSzNTczkc9d"?>
<x:xmpmeta xmlns:x="adobe:ns:meta/" x:xmptk="Adobe XMP Core 5.6-c138 79.159824, 2016/09/14-01:09:01        ">
   <rdf:RDF xmlns:rdf="http://www.w3.org/1999/02/22-rdf-syntax-ns#">
      <rdf:Description rdf:about=""/>
   </rdf:RDF>
</x:xmpmeta>
                                                                                                    
                                                                                                    
                                                                                                    
                                                                                                    
                                                                                                    
                                                                                                    
                                                                                                    
                                                                                                    
                                                                                                    
                                                                                                    
                                                                                                    
                                                                                                    
                                                                                                    
                                                                                                    
                                                                                                    
                                                                                                    
                                                                                                    
                                                                                                    
                                                                                                    
                                                                                                    
                           
<?xpacket end="w"?></metadata>
<defs>
    <style>
      .cls-1 {
        fill-rule: evenodd;
        filter: url(#filter);
      }
    </style>
    <filter id="filter" x="795.156" y="344.594" width="121.219" height="143.406" filterUnits="userSpaceOnUse">
      <feFlood result="flood" flood-color="#fda595"/>
      <feComposite result="composite" operator="in" in2="SourceGraphic"/>
      <feBlend result="blend" in2="SourceGraphic"/>
    </filter>
  </defs>
  <path id="PROMOTE_ICON" data-name="PROMOTE ICON" class="cls-1" d="M916.287,447.9c-0.949-9.772-8.225-16.854-17.333-16.854-5.713,0-10.507,3.461-13.552,7.677-3.042-4.216-7.839-7.679-13.552-7.679-9.105,0-16.381,7.084-17.335,16.856a17.02,17.02,0,0,0,.536,6.475,26.774,26.774,0,0,0,8.66,13.79l19.843,17.024a2.8,2.8,0,0,0,1.846.69,2.834,2.834,0,0,0,1.833-.678L907.1,468.166a26.767,26.767,0,0,0,8.65-13.788A17.006,17.006,0,0,0,916.287,447.9Zm-5.164,5.32a21.956,21.956,0,0,1-7.129,11.312l-18.589,15.946L866.82,464.538a21.981,21.981,0,0,1-7.136-11.312,12.67,12.67,0,0,1-.46-4.536l0.038-.251c0.584-6.267,5.1-12.61,12.593-12.61,5.219,0,9.475,4.328,11.373,8.616l2.179,4.926,2.179-4.926c1.9-4.288,6.149-8.614,11.373-8.614,7.5,0,12.009,6.343,12.624,12.828A12.756,12.756,0,0,1,911.123,453.223ZM835.694,466.49a4.78,4.78,0,1,1-4.768,4.78A4.774,4.774,0,0,1,835.694,466.49ZM848.111,456.1c-0.134-.54-0.246-1.061-0.343-1.563H799.931V363.721h71.526V423.47c0.134,0,.262-0.019.4-0.019,1.466,0,2.732.019,4.372,0.019V355.129a10.528,10.528,0,0,0-10.5-10.528H805.665a10.528,10.528,0,0,0-10.5,10.528V477.47a10.529,10.529,0,0,0,10.5,10.53h60.056a10.408,10.408,0,0,0,6.959-2.7l-13.618-11.682A33.949,33.949,0,0,1,848.111,456.1Zm-5.264-104.332h2.384a2.39,2.39,0,0,1,0,4.78h-2.384A2.39,2.39,0,0,1,842.847,351.771Zm-16.69,0h9.537a2.39,2.39,0,0,1,0,4.78h-9.537A2.39,2.39,0,0,1,826.157,351.771Zm9.537,129.059a9.56,9.56,0,1,1,9.537-9.56A9.558,9.558,0,0,1,835.694,480.83Z" transform="translate(-795.156 -344.594)"/>
</svg>
